<svg width="83" height="84" viewBox="0 0 83 84" fill="none" xmlns="http://www.w3.org/2000/svg">
<path d="M4.14625 32.2783C4.89124 31.7357 5.17636 30.7608 4.84525 29.8962L3.38286 26.1253C2.96898 25.0584 3.52082 23.8535 4.59692 23.4672L8.37706 22.1152C9.25081 21.8025 9.80266 20.9471 9.71988 20.0274L9.37038 15.9989C9.26921 14.8584 10.1338 13.8559 11.2834 13.7915L15.2751 13.5616C16.2041 13.5064 16.9766 12.835 17.1514 11.9336L17.9516 7.97876C18.1815 6.85667 19.2944 6.13928 20.4073 6.3968L24.2978 7.30735C25.1991 7.51889 26.1281 7.09581 26.5604 6.26804L28.4274 2.71784C28.9609 1.69692 30.2393 1.32903 31.2326 1.89007L34.7093 3.85832C35.5186 4.31819 36.5303 4.17103 37.1834 3.49962L39.9702 0.620826C40.7704 -0.206942 42.0948 -0.206942 42.895 0.620826L45.6818 3.49962C46.3256 4.17103 47.3465 4.31819 48.1559 3.85832L51.6325 1.89007C52.635 1.31983 53.9043 1.69692 54.4377 2.71784L56.3048 6.26804C56.7371 7.08661 57.666 7.51889 58.5674 7.30735L62.4579 6.3968C63.5799 6.13928 64.6928 6.84748 64.9136 7.97876L65.7138 11.9336C65.8977 12.8442 66.6703 13.5156 67.59 13.5616L71.5817 13.7915C72.7314 13.8559 73.5959 14.8584 73.4948 15.9989L73.1453 20.0274C73.0625 20.9471 73.6143 21.8117 74.4881 22.1152L78.2682 23.4672C79.3443 23.8535 79.8962 25.0492 79.4823 26.1253L78.0199 29.8962C77.6888 30.7608 77.9739 31.7357 78.7189 32.2783L81.9748 34.6605C82.8945 35.3319 83.0877 36.6379 82.3887 37.5485L79.9238 40.7583C79.3627 41.4941 79.3627 42.5059 79.9238 43.2324L82.3795 46.4423C83.0785 47.3529 82.8853 48.6497 81.9656 49.3303L78.7097 51.7125C77.9647 52.2551 77.6796 53.23 78.0107 54.0946L79.4731 57.8655C79.887 58.9324 79.3351 60.1373 78.259 60.5236L74.4789 61.8756C73.6051 62.1883 73.0533 63.0437 73.1361 63.9634L73.4856 67.9919C73.5867 69.1324 72.7222 70.1349 71.5725 70.1993L67.5808 70.4292C66.6611 70.4844 65.8885 71.1558 65.7046 72.0572L64.9044 76.012C64.6744 77.1433 63.5616 77.8515 62.4395 77.594L58.549 76.6835C57.6476 76.4719 56.7095 76.895 56.2772 77.7228L54.4101 81.2822C53.8767 82.3031 52.5982 82.6802 51.5957 82.1099L48.1283 80.1417C47.3189 79.6818 46.3072 79.829 45.6542 80.5004L42.8674 83.3792C42.0672 84.2069 40.7428 84.2069 39.9426 83.3792L37.1558 80.5004C36.512 79.829 35.491 79.6818 34.6817 80.1417L31.2142 82.1099C30.2117 82.6802 28.9425 82.3031 28.3998 81.2822L26.5328 77.7228C26.1005 76.9042 25.1715 76.4719 24.261 76.6835L20.3705 77.594C19.2484 77.8515 18.1355 77.1433 17.9056 76.012L17.1054 72.0572C16.9215 71.1466 16.1489 70.4844 15.2291 70.4292L11.2375 70.1993C10.0878 70.1349 9.22322 69.1324 9.32439 67.9919L9.67389 63.9634C9.75667 63.0437 9.20483 62.1791 8.33107 61.8756L4.55093 60.5236C3.47484 60.1373 2.92299 58.9416 3.33687 57.8655L4.79926 54.0946C5.13037 53.23 4.84525 52.2551 4.10026 51.7125L0.844375 49.3303C-0.0753665 48.6589 -0.268512 47.3529 0.430491 46.4423L2.8862 43.2324C3.44724 42.5059 3.44724 41.4849 2.8862 40.7583L0.421294 37.5485C-0.27771 36.6379 -0.0845639 35.3411 0.835178 34.6605L4.09106 32.2783H4.14625Z" fill="#58C4DC"/>
<path d="M46.2704 41.9909C46.2704 44.6582 44.109 46.8195 41.4418 46.8195C38.7745 46.8195 36.6131 44.6582 36.6131 41.9909C36.6131 39.3237 38.7745 37.1623 41.4418 37.1623C44.109 37.1623 46.2704 39.3237 46.2704 41.9909ZM57.1601 51.0504C57.4269 52.1173 57.666 53.1658 57.8224 54.1775C58.7329 59.8707 57.7212 63.8716 54.9804 65.4535C54.171 65.9226 53.2512 66.1525 52.2487 66.1525C49.8482 66.1525 46.951 64.8373 43.7963 62.2712C43.0145 61.6366 42.2235 60.91 41.4418 60.1466C40.66 60.91 39.869 61.6366 39.0872 62.2712C35.9325 64.8281 33.0353 66.1525 30.6348 66.1525C29.6323 66.1525 28.7125 65.9226 27.9032 65.4535C25.1623 63.8716 24.1506 59.8707 25.0612 54.1775C25.2267 53.175 25.4567 52.1265 25.7234 51.0504C18.8069 49.0637 14.3554 45.7802 14.3554 41.9909C14.3554 38.2016 18.8069 34.9181 25.7234 32.9315C25.4567 31.8646 25.2175 30.816 25.0612 29.8043C24.1506 24.1111 25.1623 20.1103 27.9032 18.5283C30.644 16.9371 34.6173 18.0776 39.0872 21.7106C39.869 22.3452 40.66 23.0718 41.4418 23.8352C42.2235 23.0718 43.0145 22.3452 43.7963 21.7106C48.2663 18.0776 52.2395 16.9463 54.9804 18.5283C57.7212 20.1103 58.7329 24.1111 57.8224 29.8043C57.6568 30.8068 57.4269 31.8554 57.1601 32.9315C64.0766 34.9181 68.5281 38.2016 68.5281 41.9909C68.5281 45.7802 64.0766 49.0637 57.1601 51.0504ZM43.0881 25.5183C44.6517 27.2107 46.1968 29.1237 47.6684 31.2115C50.2437 31.4507 52.6626 31.8278 54.8884 32.3428C55.1367 31.3495 55.3575 30.3746 55.5046 29.4364C56.2404 24.8469 55.6242 21.6186 53.8123 20.5701C53.3616 20.3126 52.8282 20.1838 52.2303 20.1838C50.4276 20.1838 47.9995 21.3427 45.2955 23.5409C44.5597 24.1387 43.8239 24.8101 43.0973 25.5275L43.0881 25.5183ZM51.2922 41.9909C50.5932 40.5377 49.8206 39.0845 48.9836 37.6313C48.1467 36.1873 47.2729 34.7893 46.3624 33.4649C44.7804 33.3453 43.1433 33.2809 41.4326 33.2809C39.7218 33.2809 38.0755 33.3453 36.5028 33.4649C35.6014 34.7893 34.7185 36.1873 33.8815 37.6313C33.0445 39.0845 32.2719 40.5377 31.5729 41.9909C32.2719 43.4441 33.0445 44.8973 33.8815 46.3505C34.7185 47.7945 35.5922 49.1925 36.5028 50.5169C38.0847 50.6365 39.7218 50.7009 41.4326 50.7009C43.1433 50.7009 44.7804 50.6365 46.3624 50.5169C47.2637 49.1925 48.1467 47.7945 48.9836 46.3505C49.8206 44.8973 50.5932 43.4441 51.2922 41.9909ZM51.0255 47.5277C50.492 48.4475 49.9402 49.3396 49.3791 50.2226C51.1082 50.0019 52.727 49.7167 54.2354 49.3764C53.7663 47.8681 53.1961 46.3321 52.5338 44.7593C52.0556 45.6883 51.5589 46.608 51.0255 47.5369V47.5277ZM44.5965 52.9818C43.5664 53.0278 42.5179 53.0554 41.4418 53.0554C40.3657 53.0554 39.3264 53.0278 38.2871 52.9818C39.3172 54.343 40.3749 55.6031 41.4418 56.762C42.5087 55.6031 43.5664 54.343 44.5965 52.9818ZM31.8581 47.5277C31.3246 46.608 30.8279 45.6791 30.3497 44.7593C29.6875 46.3321 29.1172 47.8772 28.6482 49.3764C30.1565 49.7167 31.7753 50.0019 33.5044 50.2226C32.9434 49.3488 32.3915 48.4475 31.8581 47.5277ZM31.8581 36.4541C32.3915 35.5343 32.9434 34.6422 33.5044 33.7592C31.7753 33.98 30.1565 34.2651 28.6482 34.6054C29.1172 36.1046 29.6875 37.6497 30.3497 39.2225C30.8279 38.2935 31.3246 37.3738 31.8581 36.4541ZM38.2871 30.9908C39.3172 30.9448 40.3749 30.9172 41.4418 30.9172C42.5087 30.9172 43.5572 30.9448 44.5965 30.9908C43.5664 29.6296 42.5087 28.3695 41.4418 27.2107C40.3749 28.3695 39.3172 29.6296 38.2871 30.9908ZM52.5338 39.2225C53.1961 37.6497 53.7663 36.1046 54.2354 34.6054C52.727 34.2651 51.1082 33.98 49.3791 33.7592C49.9402 34.633 50.492 35.5343 51.0255 36.4541C51.5589 37.3738 52.0556 38.3027 52.5338 39.2317V39.2225ZM28.0043 32.3428C30.2209 31.837 32.649 31.4507 35.2151 31.2115C36.6867 29.1329 38.2227 27.2199 39.7954 25.5183C39.0596 24.8101 38.3238 24.1295 37.5972 23.5317C34.8932 21.3335 32.4651 20.1746 30.6624 20.1746C30.0646 20.1746 29.5311 20.3034 29.0804 20.5609C27.2685 21.6094 26.6523 24.8377 27.3881 29.4272C27.5353 30.3654 27.756 31.3403 28.0043 32.3336V32.3428ZM26.358 48.7878C27.0386 46.5896 27.9308 44.2995 28.9885 41.9909C27.9216 39.6732 27.0386 37.3922 26.358 35.194C20.3429 36.9139 16.7007 39.5352 16.7007 41.9909C16.7007 44.4466 20.3429 47.0679 26.358 48.7878ZM39.7954 58.4543C38.2319 56.762 36.6867 54.8489 35.2151 52.7611C32.6398 52.5219 30.2209 52.1449 28.0043 51.6298C27.756 52.6231 27.5353 53.598 27.3881 54.5362C26.6523 59.1257 27.2685 62.354 29.0804 63.4025C30.8831 64.4418 33.9919 63.3657 37.5972 60.4317C38.333 59.8339 39.0688 59.1625 39.7954 58.4451V58.4543ZM54.8792 51.639C52.6626 52.1449 50.2345 52.5311 47.6592 52.7703C46.1876 54.8581 44.6517 56.762 43.0789 58.4635C43.8147 59.1717 44.5505 59.8523 45.2771 60.4501C48.8825 63.3841 52.0004 64.4694 53.8031 63.4209C55.615 62.3724 56.2312 59.1441 55.4954 54.5546C55.3483 53.6164 55.1275 52.6415 54.8792 51.6482V51.639ZM66.1736 41.9909C66.1736 39.5352 62.5314 36.9139 56.5163 35.194C55.8357 37.3922 54.9436 39.6824 53.8767 41.9909C54.9436 44.3087 55.8265 46.5896 56.5163 48.7878C62.5314 47.0679 66.1736 44.4466 66.1736 41.9909Z" fill="#191B22"/>
</svg>
