<svg width="316" height="297" viewBox="0 0 316 297" fill="none" xmlns="http://www.w3.org/2000/svg">
<g clip-path="url(#clip0_6443_18738)">
<path d="M47.8266 135.231C50.402 132.366 53.9219 129.61 58.2808 127.02C62.6509 124.431 67.8767 122.01 73.8519 119.827C75.2832 119.309 76.7588 118.8 78.2775 118.31C78.2147 117.97 78.1514 117.635 78.0941 117.296C77.5683 114.298 77.1024 111.321 76.6896 108.383C76.2763 105.45 75.9222 102.55 75.6267 99.6874C67.9042 101.419 60.8795 103.475 54.6538 105.777C48.4452 108.076 43.019 110.621 38.4763 113.336C33.9449 116.051 30.2803 118.936 27.5941 121.926C27.4219 122.12 27.2557 122.308 27.0946 122.502C26.9344 122.685 26.7797 122.868 26.6362 123.052C26.4872 123.236 26.3437 123.42 26.2002 123.605C26.1877 123.62 26.1753 123.636 26.1628 123.652C26.0253 123.831 25.8934 124.011 25.7671 124.191C25.6227 124.386 25.4834 124.588 25.3502 124.784C25.2239 124.964 25.1082 125.15 24.993 125.331C24.8714 125.523 24.7553 125.715 24.6397 125.901C24.3933 126.323 24.1641 126.741 23.9572 127.161C23.8772 127.322 23.8027 127.484 23.7287 127.64C23.6349 127.834 23.5523 128.028 23.4756 128.218C23.3994 128.402 23.3237 128.58 23.2591 128.76C23.2522 128.776 23.2453 128.792 23.2444 128.803C23.1673 128.998 23.1019 129.189 23.0364 129.379C22.9704 129.575 22.9101 129.772 22.8553 129.968C22.7406 130.356 22.6482 130.746 22.5669 131.136C22.5111 131.417 22.4609 131.698 22.4269 131.986C22.3874 132.273 22.3535 132.561 22.3307 132.85C22.3132 133.072 22.3008 133.3 22.2944 133.523C22.2922 133.551 22.2904 133.573 22.2887 133.595C22.2847 133.645 22.2863 133.696 22.288 133.746C22.2766 134.103 22.282 134.461 22.3041 134.82C22.3087 134.905 22.3128 134.994 22.3229 135.079C22.3216 135.096 22.3259 135.113 22.3246 135.129C22.3371 135.326 22.3556 135.517 22.3793 135.715C22.405 135.957 22.4363 136.2 22.4787 136.444C22.5156 136.687 22.558 136.93 22.6116 137.175C22.6562 137.391 22.7064 137.607 22.7566 137.824C22.7656 137.852 22.769 137.88 22.7784 137.903C22.8341 138.12 22.8895 138.343 22.9564 138.56C22.9918 138.68 23.0267 138.806 23.0621 138.926C23.1073 139.064 23.152 139.207 23.2028 139.345C23.2569 139.512 23.3162 139.684 23.3815 139.851C23.5061 140.191 23.6418 140.531 23.7887 140.872C23.8309 140.976 23.8732 141.08 23.9266 141.185C23.9744 141.289 24.0222 141.394 24.0701 141.498C24.2614 141.916 24.4694 142.334 24.6942 142.755C24.8065 142.965 24.9245 143.175 25.0424 143.386L25.1014 143.491C25.3288 143.878 25.5677 144.26 25.8118 144.648C25.9465 144.86 26.0871 145.066 26.2274 145.279C26.2676 145.338 26.3082 145.391 26.3428 145.45C26.569 145.781 26.8068 146.107 27.0445 146.433C27.0753 146.469 27.1061 146.505 27.1309 146.546C27.364 146.86 27.6082 147.176 27.8691 147.493C28.1185 147.814 28.385 148.131 28.6575 148.443C28.8367 148.659 29.0164 148.868 29.2077 149.074C29.7741 149.711 30.3693 150.339 30.9979 150.97C31.211 151.182 31.4241 151.394 31.6432 151.602C31.8619 151.815 32.0806 152.027 32.3052 152.235C32.5817 152.497 32.8697 152.755 33.1578 153.012C33.4454 153.275 33.739 153.533 34.0382 153.791C34.6049 154.283 35.1887 154.771 35.7953 155.255C35.9956 155.416 36.2015 155.577 36.4075 155.739C36.6129 155.906 36.8244 156.068 37.0363 156.224C37.2157 156.367 37.3955 156.504 37.5753 156.641C37.607 156.666 37.6386 156.691 37.6707 156.71C37.8878 156.873 38.0993 157.035 38.3223 157.192C38.5394 157.355 38.762 157.517 38.9906 157.675C39.2133 157.838 39.4359 158.001 39.6645 158.159C40.1213 158.48 40.5837 158.801 41.0521 159.118C41.968 159.732 42.9121 160.343 43.8846 160.951C43.9223 160.97 43.9539 160.995 43.9916 161.015C44.4995 161.329 45.0129 161.643 45.5379 161.953C45.7893 162.107 46.0406 162.261 46.298 162.41C49.4009 164.225 52.7757 166.006 56.4361 167.72C55.871 167.278 55.3231 166.833 54.7919 166.389C51.8055 163.878 49.343 161.337 47.4458 158.806C45.5538 156.282 44.2165 153.762 43.4694 151.295C42.7223 148.827 42.5653 146.412 43.0247 144.073C43.6095 141.068 45.2458 138.095 47.8211 135.231L47.8266 135.231ZM149.187 50.9515C148.413 50.0298 147.632 49.1243 146.855 48.2415C146.083 47.3647 145.315 46.5161 144.54 45.6837C144.529 45.6717 144.513 45.6593 144.503 45.6473C143.723 44.8089 142.935 43.9923 142.146 43.1979C139.236 40.2802 136.372 37.707 133.571 35.4852C130.78 33.2699 128.051 31.4003 125.406 29.8895C122.773 28.3795 120.218 27.2222 117.774 26.4258C115.331 25.6294 112.994 25.1879 110.785 25.1196C110.052 25.0953 109.334 25.1112 108.628 25.1673C107.923 25.229 107.231 25.3253 106.558 25.4678C105.88 25.6043 105.221 25.7869 104.582 26.0047C103.936 26.2276 103.31 26.4911 102.703 26.7952C100.263 28.0109 98.0658 29.9219 96.1225 32.451C94.1788 34.9855 92.4937 38.1496 91.0837 41.8776C89.6733 45.611 88.5426 49.9198 87.7137 54.7386C86.8779 59.5736 86.3486 64.9302 86.1467 70.7541C86.1091 71.9415 86.0868 73.1468 86.0804 74.3646C86.074 75.5823 86.0834 76.8125 86.1087 78.0551C86.1279 79.3029 86.1634 80.5575 86.2152 81.8189C86.261 83.0855 86.3231 84.359 86.3898 85.644C89.2268 85.147 92.1215 84.6993 95.0749 84.2898C98.0334 83.8863 101.051 83.5209 104.114 83.2039C104.132 83.1997 104.154 83.2014 104.171 83.1972C104.402 78.7783 104.839 74.6606 105.469 70.8767C106.245 66.2325 107.311 62.0919 108.654 58.504C109.991 54.9212 111.604 51.8856 113.467 49.4563C115.324 47.0267 117.441 45.2044 119.787 44.0427C120.37 43.7535 120.973 43.5049 121.589 43.2965C122.211 43.0885 122.847 42.9207 123.497 42.7876C124.146 42.66 124.815 42.5675 125.492 42.5148C126.174 42.468 126.864 42.4555 127.574 42.4836C129.704 42.5623 131.957 43.0027 134.317 43.7815C136.678 44.5657 139.145 45.6993 141.692 47.1689C144.25 48.645 146.888 50.4571 149.588 52.6094C150.142 53.0499 150.706 53.508 151.263 53.9822C151.347 53.9051 151.432 53.8335 151.516 53.7619C150.744 52.8124 149.966 51.8736 149.187 50.9515ZM168.21 77.8635C167.146 76.0806 166.078 74.3366 164.991 72.6245C163.914 70.9189 162.824 69.2458 161.725 67.6111C160.626 65.9819 159.525 64.3805 158.409 62.8227C156.787 64.2539 155.158 65.7179 153.531 67.2213C151.899 68.7187 150.276 70.2503 148.65 71.8097C147.018 73.3741 145.396 74.9673 143.77 76.5937C142.151 78.2206 140.528 79.8808 138.909 81.5692C140.237 81.5846 141.564 81.6 142.903 81.6218C144.241 81.6436 145.584 81.6714 146.932 81.7108C148.281 81.7446 149.64 81.7904 150.998 81.8473C152.361 81.899 153.736 81.9628 155.109 82.0377C156.488 82.113 157.861 82.1934 159.221 82.2896C160.588 82.3807 161.948 82.4825 163.302 82.5894C164.655 82.6963 166.003 82.8138 167.345 82.9365C167.946 82.9895 168.547 83.0426 169.143 83.1007L169.148 83.1012C169.608 82.6736 170.067 82.2572 170.531 81.8412C169.763 80.4953 168.993 79.1715 168.21 77.8635ZM94.9764 177.446C94.4864 176.194 94.0085 174.933 93.5306 173.671C93.0583 172.41 92.592 171.144 92.1321 169.867C91.6718 168.596 91.2175 167.319 90.7753 166.032C90.3326 164.751 89.9014 163.465 89.481 162.186C89.0606 160.907 88.6462 159.622 88.248 158.344C87.8443 157.066 87.4513 155.795 87.0643 154.518C86.6825 153.247 86.3062 151.977 85.9355 150.707C84.7236 152.707 83.5455 154.704 82.3962 156.692C81.2464 158.686 80.131 160.671 79.0447 162.642C77.958 164.618 76.9052 166.592 75.8815 168.551C74.8579 170.51 73.8685 172.46 72.9079 174.402C74.6974 175.029 76.5271 175.643 78.4032 176.238C80.2789 176.839 82.1953 177.42 84.152 177.988C86.1143 178.557 88.1225 179.112 90.1714 179.648C91.5721 180.016 93.0015 180.375 94.4485 180.724C94.5276 180.573 94.6008 180.428 94.6799 180.278C94.9444 179.768 95.209 179.258 95.4795 178.743C95.3118 178.31 95.1441 177.878 94.9764 177.446ZM183.769 108.112C182.918 106.184 182.053 104.283 181.176 102.397C180.298 100.523 179.413 98.6648 178.515 96.8335C176.462 96.5542 174.397 96.2961 172.303 96.047C170.22 95.8043 168.113 95.5765 165.982 95.3637C163.857 95.1568 161.713 94.9652 159.546 94.7941C158.777 94.7334 158.008 94.6783 157.238 94.6231C155.834 94.5178 154.417 94.4283 152.994 94.344C152.715 94.3275 152.43 94.3106 152.151 94.2998C151.191 94.2408 150.236 94.1933 149.286 94.1519C148.337 94.1049 147.392 94.0639 146.448 94.0284C144.29 93.9475 142.159 93.8854 140.042 93.8469C137.932 93.8088 135.836 93.7887 133.768 93.7875C131.699 93.7863 129.656 93.8094 127.63 93.845C126.176 95.5018 124.731 97.1761 123.291 98.873C122.45 99.8684 121.613 100.886 120.77 101.899L120.759 101.898C120.171 102.6 119.582 103.314 118.993 104.027C117.566 105.77 116.149 107.53 114.742 109.308C114.362 109.786 113.982 110.265 113.602 110.749L113.613 110.75C112.584 112.06 111.556 113.371 110.537 114.698C109.843 115.61 109.149 116.522 108.46 117.435C107.79 118.326 107.125 119.218 106.46 120.11C106.447 120.132 106.429 120.152 106.416 120.174C105.061 122 103.733 123.829 102.423 125.659C101.717 126.643 101.023 127.628 100.328 128.612C99.7342 129.46 99.1399 130.312 98.5515 131.16C97.285 132.999 96.0413 134.835 94.8146 136.666C95.3376 138.635 95.8875 140.618 96.4542 142.602C97.0264 144.586 97.6149 146.577 98.2308 148.576C98.8463 150.581 99.4841 152.587 100.149 154.601C100.809 156.614 101.496 158.63 102.206 160.653C102.293 160.901 102.38 161.148 102.472 161.395C102.565 161.643 102.657 161.891 102.744 162.138L102.729 162.125C102.994 162.884 103.265 163.643 103.542 164.397C103.542 164.391 103.554 164.387 103.554 164.381C103.83 165.146 104.1 165.922 104.382 166.682C105.127 168.68 105.884 170.662 106.665 172.629C107.44 174.602 108.233 176.559 109.045 178.495C109.856 180.437 110.679 182.362 111.521 184.273C113.523 184.621 115.548 184.96 117.608 185.284C119.663 185.603 121.752 185.913 123.866 186.203C124.304 186.26 124.742 186.323 125.186 186.374C124.904 185.693 124.627 185.006 124.351 184.319C123.592 182.426 122.851 180.523 122.122 178.599C121.399 176.681 120.688 174.748 119.995 172.804C119.302 170.86 118.631 168.919 117.982 166.979C117.339 165.044 116.712 163.117 116.107 161.192C115.502 159.266 114.924 157.349 114.363 155.438C113.808 153.528 113.268 151.624 112.756 149.728C113.921 147.97 115.114 146.215 116.324 144.455C117.538 142.701 118.77 140.943 120.025 139.187C120.05 139.15 120.082 139.107 120.107 139.07C120.135 138.922 120.159 138.767 120.188 138.613C120.814 135.08 122.102 131.767 123.889 128.807C125.675 125.846 127.967 123.233 130.604 121.083C132.563 119.488 134.715 118.155 136.994 117.128C137.986 115.921 138.989 114.726 139.996 113.542C141.374 111.919 142.757 110.312 144.144 108.728C146.097 108.704 148.065 108.697 150.06 108.709C152.05 108.721 154.066 108.746 156.097 108.8C158.134 108.849 160.192 108.917 162.265 109.008C164.343 109.099 166.448 109.209 168.568 109.349C170.687 109.482 172.789 109.637 174.872 109.813C176.961 109.989 179.025 110.185 181.066 110.397C182.373 110.533 183.668 110.675 184.957 110.827C184.563 109.918 184.169 109.015 183.769 108.112ZM105.682 95.0241C105.416 95.0479 105.157 95.072 104.896 95.1018C104.636 95.1316 104.371 95.1553 104.111 95.1795C102.512 95.3383 100.928 95.5095 99.3669 95.688C99.095 95.7224 98.8236 95.7513 98.5518 95.7857L98.5629 95.7866C97.2887 95.9486 96.0204 96.1056 94.768 96.275C94.2637 96.3414 93.7591 96.4133 93.26 96.4857C91.2584 96.7691 89.2946 97.0724 87.3573 97.3945C87.5781 99.3566 87.8198 101.337 88.0885 103.331C88.3624 105.331 88.6632 107.344 88.9906 109.376C89.0355 109.659 89.0805 109.942 89.131 110.226C89.3922 111.817 89.6698 113.414 89.9687 115.025C89.995 115.189 90.0265 115.359 90.0583 115.524C90.4444 117.594 90.8574 119.678 91.3029 121.775C92.1177 120.615 92.9441 119.451 93.7756 118.293C94.6015 117.134 95.4386 115.977 96.2864 114.825C97.129 113.668 97.9828 112.511 98.8417 111.361C99.7067 110.205 100.577 109.056 101.458 107.907C102.34 106.753 103.225 105.616 104.117 104.485C105.002 103.353 105.898 102.228 106.793 101.114C107.689 99.9997 108.589 98.8916 109.495 97.784C110.401 96.6819 111.306 95.5854 112.211 94.4944C110 94.6497 107.823 94.8242 105.682 95.0241Z" fill="#27859A"/>
<path d="M161.512 45.3804C161.471 45.4107 161.434 45.4469 161.393 45.4772C160.559 44.4613 159.718 43.4617 158.882 42.4736C158.523 42.0541 158.163 41.6401 157.804 41.2261C157.475 40.8425 157.146 40.4645 156.811 40.0916C157.079 40.3921 157.351 40.7042 157.624 41.0108L161.512 45.3804Z" fill="#27859A"/>
<path d="M236.014 46.8522C235.904 46.8323 235.788 46.812 235.671 46.7972C234.957 46.6849 234.217 46.6153 233.451 46.5884C231.142 46.4956 228.587 46.7633 225.809 47.3711C223.036 47.9737 220.046 48.9224 216.867 50.2027C213.688 51.4829 210.314 53.0999 206.786 55.0344C203.258 56.9689 199.565 59.2256 195.74 61.7961C194.704 62.4911 193.666 63.2139 192.621 63.9529C191.581 64.6979 190.534 65.4591 189.486 66.237C188.431 67.02 187.382 67.8145 186.331 68.6257C185.275 69.4364 184.217 70.2639 183.164 71.1028C184.762 73.3022 186.344 75.5674 187.908 77.9095C189.478 80.252 191.026 82.6654 192.557 85.1446C192.785 85.5203 193.019 85.8964 193.247 86.2776C191.277 85.9433 189.284 85.6239 187.272 85.3254C185.782 82.475 184.27 79.6844 182.724 76.9638C181.189 74.2496 179.626 71.6059 178.046 69.0279C176.467 66.4555 174.864 63.954 173.245 61.5293C171.631 59.1051 169.994 56.7573 168.346 54.4813C168.549 54.3185 168.758 54.1562 168.961 53.999C168.998 53.9627 169.04 53.9325 169.075 53.9073C169.931 53.2205 170.791 52.5507 171.646 51.8861C172.744 51.034 173.842 50.1985 174.938 49.3853C176.028 48.5661 177.123 47.764 178.211 46.9892C179.298 46.2144 180.378 45.4558 181.456 44.725C185.448 42.028 189.296 39.6549 192.972 37.6203C196.654 35.5862 200.163 33.8849 203.477 32.5315C206.791 31.178 209.909 30.1724 212.792 29.5225C215.686 28.8736 218.343 28.586 220.743 28.6581C221.542 28.6877 222.311 28.7539 223.054 28.8628C223.796 28.9718 224.508 29.1174 225.188 29.3107C225.868 29.4986 226.517 29.7342 227.135 30.0065C227.752 30.2788 228.333 30.5984 228.882 30.9547C229.026 31.0499 229.164 31.1446 229.302 31.2394C229.398 31.3084 229.493 31.3774 229.583 31.446C229.784 31.6015 229.984 31.7626 230.173 31.9229C230.268 32.003 230.357 32.0827 230.446 32.1679C230.812 32.5041 231.165 32.8617 231.493 33.2453C231.55 33.3001 231.601 33.3656 231.653 33.4256C231.709 33.4915 231.76 33.557 231.811 33.6225C231.821 33.6344 231.826 33.646 231.831 33.652C231.939 33.7779 232.041 33.9088 232.136 34.0449C232.238 34.1815 232.339 34.3235 232.434 34.4652C233.028 35.3279 233.547 36.2798 233.997 37.3213C235.124 39.9474 235.803 43.1416 236.014 46.8522Z" fill="#27859A"/>
<path d="M56.7704 181.952C56.6473 182.233 56.5242 182.514 56.4072 182.789L43.4785 175.471C43.6721 175.575 43.8712 175.681 44.0699 175.791C44.3766 175.955 44.6828 176.125 44.9894 176.289C45.2472 176.432 45.5055 176.57 45.7637 176.707C45.8177 176.734 45.8661 176.76 45.92 176.787C46.2323 176.951 46.5445 177.115 46.8627 177.275C47.1805 177.439 47.4987 177.599 47.8165 177.763C48.3017 178.009 48.7925 178.254 49.2834 178.5C49.8337 178.772 50.3952 179.046 50.9572 179.313C51.0544 179.36 51.1516 179.407 51.2493 179.448C51.795 179.709 52.3411 179.965 52.8983 180.221C54.1635 180.813 55.4528 181.384 56.7704 181.952Z" fill="#27859A"/>
<path d="M106.203 203.2C105.055 202.903 103.918 202.595 102.794 202.283C99.9624 201.501 97.196 200.679 94.4995 199.823C91.8141 198.968 89.1986 198.08 86.6531 197.158C86.1176 198.401 85.5938 199.64 85.0871 200.874C84.5748 202.108 84.0797 203.337 83.6022 204.557C83.1191 205.776 82.6587 206.992 82.2108 208.191C81.768 209.397 81.3428 210.593 80.9408 211.779C78.9733 217.598 77.4849 223.03 76.4855 228.019C75.4801 233.014 74.959 237.556 74.9275 241.577C74.8951 245.609 75.3468 249.121 76.3002 252.029C76.4448 252.471 76.6013 252.902 76.7708 253.313C76.5487 253.357 76.327 253.395 76.1113 253.428C73.2941 253.888 70.7245 253.981 68.4317 253.694C67.671 253.6 66.9416 253.464 66.2436 253.286C65.5456 253.108 64.8841 252.894 64.2489 252.632L64.2433 252.631C63.6081 252.369 63.0037 252.069 62.4364 251.728C61.8694 251.382 61.3334 250.999 60.8292 250.568C58.823 248.85 57.3372 246.436 56.3665 243.392C55.4004 240.36 54.949 236.703 55.0061 232.499C55.0679 228.307 55.6326 223.568 56.7108 218.361C57.783 213.159 59.3576 207.488 61.4344 201.421C61.8575 200.18 62.309 198.936 62.7784 197.677C63.2419 196.422 63.734 195.159 64.2382 193.886C64.7424 192.612 65.2642 191.329 65.8032 190.042C66.0309 189.501 66.2706 188.95 66.4988 188.403L66.4932 188.403C66.6025 188.154 66.7063 187.905 66.81 187.657L66.8156 187.657C67.0286 187.16 67.2357 186.667 67.4488 186.17C70.0821 187.116 72.7966 188.028 75.5809 188.908C78.3709 189.787 81.2363 190.634 84.1781 191.436C87.1246 192.25 90.142 193.019 93.2297 193.749C96.3229 194.479 99.4861 195.176 102.715 195.828C103.852 198.32 105.015 200.776 106.203 203.2Z" fill="#27859A"/>
<path d="M185.518 155.634C184.959 159.099 183.738 162.345 182.001 165.248C180.269 168.151 178.027 170.707 175.429 172.793C172.837 174.874 169.889 176.485 166.754 177.495C163.624 178.506 160.3 178.919 156.949 178.616C155.897 178.516 154.873 178.357 153.882 178.128C152.896 177.905 151.932 177.611 151.012 177.264C150.086 176.917 149.198 176.517 148.349 176.059C147.493 175.6 146.682 175.084 145.913 174.526L129.332 162.482C129.263 162.431 129.194 162.381 129.12 162.325C129.29 162.45 129.465 162.576 129.64 162.696C129.805 162.804 129.97 162.918 130.136 163.02C130.301 163.128 130.467 163.236 130.638 163.334C130.809 163.442 130.981 163.539 131.153 163.637C131.56 163.87 131.98 164.093 132.407 164.3C132.601 164.394 132.795 164.487 132.996 164.576C133.239 164.69 133.483 164.793 133.728 164.896C133.918 164.973 134.113 165.05 134.309 165.127C134.359 165.142 134.407 165.162 134.457 165.177C134.68 165.262 134.903 165.341 135.133 165.415C135.362 165.495 135.592 165.569 135.822 165.637C136.008 165.691 136.2 165.745 136.392 165.8C136.519 165.832 136.645 165.864 136.771 165.897C136.975 165.952 137.178 166.001 137.388 166.046C137.597 166.096 137.807 166.135 138.022 166.18C138.099 166.197 138.176 166.209 138.254 166.22C138.48 166.266 138.702 166.3 138.929 166.341L138.995 166.346C139.25 166.388 139.505 166.42 139.761 166.451C140.027 166.483 140.3 166.516 140.573 166.537C144.058 166.841 147.514 166.392 150.777 165.326C154.046 164.259 157.112 162.568 159.824 160.384C162.53 158.201 164.878 155.525 166.698 152.489C168.513 149.458 169.801 146.066 170.4 142.453C170.772 140.236 170.854 138.058 170.688 135.966C170.662 135.656 170.63 135.352 170.592 135.053C170.567 134.805 170.536 134.557 170.493 134.313C170.477 134.172 170.454 134.03 170.431 133.894C170.345 133.357 170.235 132.828 170.114 132.305C170 131.826 169.875 131.353 169.732 130.889C169.661 130.654 169.584 130.419 169.507 130.184C169.43 129.954 169.348 129.718 169.265 129.494C169.182 129.264 169.094 129.033 168.999 128.808C168.934 128.646 168.862 128.484 168.791 128.322C168.687 128.073 168.578 127.83 168.462 127.592C168.405 127.464 168.347 127.342 168.284 127.22C168.168 126.982 168.047 126.743 167.919 126.515C167.826 126.346 167.733 126.176 167.634 126.006C167.141 125.146 166.595 124.321 166.001 123.542C165.777 123.25 165.547 122.964 165.312 122.682C165.173 122.515 165.03 122.347 164.88 122.185C164.617 121.89 164.348 121.606 164.072 121.333C163.964 121.218 163.855 121.109 163.74 121.005C163.714 120.975 163.682 120.95 163.657 120.92L178.641 134.654C179.99 135.89 181.18 137.297 182.179 138.84C183.184 140.383 184.004 142.069 184.609 143.854C185.219 145.646 185.613 147.544 185.777 149.518C185.934 151.498 185.857 153.543 185.518 155.634Z" fill="#27859A"/>
<path d="M259.256 80.4903C258.346 85.5598 256.992 90.991 255.181 96.7493C254.776 98.0363 254.349 99.3325 253.892 100.643C253.535 101.682 253.156 102.731 252.769 103.79C247.848 101.502 242.567 99.3581 236.972 97.3629C237.561 95.9452 238.138 94.5267 238.698 93.1179C239.258 91.7091 239.805 90.3105 240.324 88.9208C240.849 87.5316 241.35 86.1518 241.828 84.7868C242.3 83.4214 242.755 82.0658 243.18 80.7246C243.419 79.9723 243.652 79.2306 243.873 78.488C244.071 77.8275 244.268 77.178 244.454 76.5277C244.485 76.4128 244.516 76.3035 244.547 76.1942C244.748 75.4947 244.943 74.8004 245.127 74.1107C245.158 74.0014 245.188 73.8977 245.213 73.7934C245.379 73.1807 245.534 72.5781 245.688 71.9755C245.851 71.329 246.014 70.6825 246.165 70.0461C246.36 69.2121 246.549 68.3831 246.725 67.57C246.811 67.1912 246.891 66.8119 246.966 66.4322C247.008 66.2567 247.038 66.0859 247.074 65.9154C247.128 65.6571 247.183 65.3931 247.231 65.1343C247.288 64.8426 247.345 64.5509 247.396 64.2587C247.431 64.0939 247.461 63.9341 247.49 63.7688C247.511 63.6475 247.532 63.5207 247.553 63.3994C247.78 62.1599 247.978 60.9349 248.145 59.7354C248.259 58.9341 248.361 58.143 248.45 57.3676C248.481 57.1186 248.506 56.8691 248.531 56.6196C248.576 56.2711 248.608 55.9272 248.641 55.5833C248.677 55.1279 248.723 54.6845 248.758 54.2402C248.832 53.3071 248.888 52.3839 248.926 51.476C248.939 51.2478 248.945 51.0248 248.951 50.8018C248.964 50.501 248.97 50.2053 248.977 49.9096C248.981 49.7199 248.984 49.5302 248.983 49.3401C248.985 49.1726 248.987 49.0051 248.989 48.8376C248.994 48.4133 248.987 47.9993 248.981 47.5852C248.982 47.5015 248.977 47.4228 248.978 47.3446C248.969 46.9528 248.961 46.561 248.941 46.1738C248.935 45.961 248.93 45.7482 248.912 45.5401C248.904 45.2879 248.891 45.0354 248.871 44.7879C248.859 44.5187 248.835 44.2486 248.811 43.9841C248.803 43.799 248.784 43.6131 248.765 43.4328C248.743 43.146 248.715 42.8532 248.682 42.5712C248.684 42.5434 248.685 42.5212 248.677 42.4925C248.639 42.1151 248.59 41.7369 248.541 41.3697C248.523 41.2453 248.51 41.127 248.491 41.0081C248.45 40.6696 248.398 40.3414 248.34 40.0126C248.321 39.8883 248.302 39.775 248.284 39.6562C248.218 39.2766 248.152 38.9081 248.075 38.5387C248.043 38.3742 248.011 38.2096 247.973 38.0501C247.846 37.4534 247.713 36.8672 247.562 36.2965C247.506 36.0797 247.45 35.8685 247.389 35.6513C247.324 35.4114 247.253 35.1711 247.182 34.9364C247.119 34.7359 247.061 34.5413 246.993 34.3403C246.673 33.3483 246.312 32.3921 245.913 31.4721C245.81 31.2236 245.7 30.9802 245.584 30.742C245.474 30.4986 245.359 30.2603 245.237 30.0272C245.126 29.8005 245.009 29.5733 244.887 29.3513C244.887 29.3457 244.882 29.3342 244.877 29.3282C244.872 29.3222 244.872 29.3166 244.867 29.3106C244.745 29.0886 244.622 28.8666 244.499 28.6501C244.366 28.4216 244.232 28.1987 244.098 27.9758C243.988 27.805 243.884 27.6347 243.774 27.464L255.564 45.579C257.275 48.2008 258.553 51.2635 259.399 54.7448C260.251 58.2321 260.671 62.1381 260.646 66.4335C260.626 70.7406 260.165 75.4376 259.256 80.4903Z" fill="#27859A"/>
<path d="M138.726 253.861C138.535 254.002 138.339 254.143 138.149 254.279C136.995 255.116 135.837 255.93 134.693 256.722C133.543 257.514 132.4 258.279 131.26 259.016C126.699 261.959 122.3 264.495 118.073 266.621C113.858 268.736 109.821 270.44 105.98 271.724C102.15 273.009 98.5218 273.873 95.111 274.325C91.7062 274.772 88.5245 274.805 85.5781 274.416C85.0398 274.346 84.5085 274.259 83.9891 274.162C83.4641 274.065 82.9516 273.952 82.446 273.823C81.94 273.699 81.4413 273.553 80.9542 273.403C80.4619 273.247 79.9821 273.075 79.5143 272.893L59.7405 265.213C59.9311 265.283 60.1273 265.355 60.3184 265.42C60.4602 265.471 60.602 265.521 60.7498 265.566C60.9135 265.624 61.0827 265.682 61.2472 265.728C61.3072 265.75 61.362 265.765 61.4169 265.781C61.6084 265.841 61.8059 265.895 62.0034 265.95C62.0968 265.974 62.1846 265.998 62.2781 266.022C62.2948 266.023 62.3111 266.03 62.3278 266.031C62.3612 266.034 62.3882 266.047 62.4212 266.056C62.4867 266.078 62.5527 266.094 62.6187 266.11C62.635 266.117 62.6573 266.119 62.674 266.12C62.8385 266.167 63.009 266.208 63.18 266.244L63.1967 266.245C63.4221 266.302 63.6539 266.349 63.8806 266.389C63.9299 266.404 63.9796 266.413 64.0293 266.423C64.112 266.441 64.1891 266.458 64.2723 266.47C64.4823 266.509 64.6922 266.548 64.9082 266.582L64.9194 266.583C65.2292 266.635 65.5451 266.682 65.8669 266.724C68.9252 267.117 72.2307 267.076 75.7668 266.601C79.3144 266.121 83.093 265.201 87.085 263.85C91.0825 262.501 95.2887 260.709 99.686 258.485C104.089 256.257 108.678 253.596 113.435 250.506C114.623 249.734 115.819 248.929 117.017 248.101C118.215 247.274 119.421 246.419 120.628 245.542C121.836 244.665 123.051 243.76 124.267 242.845C125.488 241.93 126.706 240.992 127.93 240.044C128.784 241.234 129.638 242.414 130.505 243.578C131.366 244.741 132.24 245.888 133.11 247.019C133.985 248.15 134.867 249.259 135.751 250.346C136.636 251.427 137.527 252.492 138.427 253.524C138.525 253.638 138.628 253.752 138.726 253.861Z" fill="#27859A"/>
<path d="M206.713 185.154C206.293 185.713 205.868 186.272 205.443 186.831C205.399 186.883 205.361 186.942 205.318 186.994C203.698 187.196 202.057 187.39 200.4 187.567C198.189 187.806 195.94 188.025 193.666 188.215C191.392 188.404 189.091 188.569 186.754 188.703C184.422 188.843 182.064 188.953 179.669 189.038C180.629 187.884 181.583 186.73 182.533 185.564C183.488 184.405 184.438 183.233 185.383 182.056C186.328 180.879 187.268 179.696 188.204 178.501C189.145 177.307 190.075 176.101 191.001 174.888C191.932 173.676 192.847 172.458 193.75 171.244C194.653 170.024 195.551 168.804 196.438 167.583C197.325 166.362 198.201 165.135 199.072 163.913C199.942 162.691 200.807 161.462 201.66 160.239C202.223 162.485 202.758 164.724 203.255 166.953C203.757 169.189 204.232 171.412 204.674 173.626C205.11 175.84 205.525 178.041 205.907 180.234C206.192 181.883 206.461 183.519 206.713 185.154Z" fill="#27859A"/>
<path d="M209.158 208.444C209.079 207.035 208.989 205.614 208.883 204.186C208.777 202.764 208.654 201.329 208.527 199.888C205.338 200.307 202.096 200.672 198.803 200.987C195.515 201.298 192.181 201.56 188.795 201.762C185.42 201.971 182 202.12 178.544 202.216C175.089 202.312 171.598 202.355 168.073 202.339C167.065 203.45 166.053 204.555 165.036 205.643C164.534 206.184 164.026 206.725 163.512 207.266C162.569 208.281 161.615 209.284 160.662 210.276C159.141 211.855 157.622 213.412 156.095 214.934C155.614 215.416 155.133 215.898 154.652 216.38C154.171 216.861 153.685 217.337 153.205 217.808C150.714 220.249 148.222 222.623 145.725 224.918C144.685 225.881 143.64 226.827 142.591 227.761C141.709 228.558 140.823 229.348 139.932 230.122C139.372 230.614 138.812 231.101 138.252 231.582C139.062 232.691 139.867 233.788 140.684 234.87C141.496 235.951 142.314 237.016 143.14 238.065C143.965 239.113 144.792 240.145 145.621 241.15C146.455 242.16 147.292 243.142 148.135 244.103C148.521 244.542 148.908 244.974 149.294 245.402C149.686 245.841 150.084 246.269 150.471 246.691C150.864 247.113 151.251 247.529 151.64 247.934C151.836 248.145 152.028 248.345 152.22 248.544C152.411 248.749 152.603 248.943 152.8 249.143C153.313 249.676 153.828 250.191 154.342 250.701C154.857 251.211 155.373 251.71 155.884 252.198C156.395 252.685 156.901 253.161 157.408 253.626C157.805 253.992 158.209 254.348 158.602 254.703C158.968 255.029 159.336 255.348 159.698 255.656L159.704 255.657C160.081 255.988 160.46 256.309 160.833 256.618C161.212 256.932 161.586 257.241 161.965 257.545C161.965 257.545 161.971 257.546 161.971 257.551C162.319 257.83 162.672 258.109 163.021 258.377C163.021 258.383 163.026 258.383 163.026 258.383C163.031 258.389 163.037 258.39 163.042 258.396C163.808 258.987 164.565 259.555 165.319 260.09C165.653 260.334 165.988 260.567 166.323 260.795C166.355 260.82 166.392 260.84 166.424 260.865C166.674 261.035 166.924 261.206 167.17 261.365C167.361 261.497 167.553 261.624 167.745 261.746C168.433 262.191 169.117 262.62 169.792 263.014C170.054 263.174 170.312 263.323 170.57 263.466C170.655 263.518 170.736 263.563 170.822 263.609C171.047 263.739 171.273 263.863 171.499 263.981C171.735 264.112 171.972 264.236 172.204 264.355C172.338 264.427 172.468 264.493 172.597 264.56C173.4 264.969 174.2 265.346 174.987 265.681C176.624 266.386 178.223 266.937 179.779 267.334C178.683 266.51 177.58 265.635 176.465 264.703C174.525 263.074 172.553 261.281 170.566 259.319C168.584 257.369 166.587 255.255 164.579 252.985C163.766 252.065 162.955 251.118 162.151 250.15C161.347 249.186 160.545 248.195 159.75 247.188C158.955 246.181 158.161 245.157 157.374 244.117C156.587 243.083 155.807 242.026 155.021 240.964C157.403 238.917 159.791 236.797 162.173 234.605C164.56 232.412 166.942 230.153 169.324 227.82C171.706 225.488 174.087 223.094 176.457 220.627C178.827 218.165 181.19 215.641 183.542 213.049C186.927 213.076 190.281 213.05 193.596 212.971C196.915 212.892 200.194 212.76 203.433 212.574C205.415 212.462 207.377 212.327 209.323 212.178C209.28 210.946 209.227 209.701 209.158 208.444ZM147.275 201.664C145.886 201.577 144.491 201.484 143.098 201.379C141.704 201.28 140.305 201.17 138.908 201.048C137.51 200.927 136.108 200.794 134.7 200.655C133.298 200.516 131.903 200.361 130.519 200.207C129.136 200.048 127.759 199.878 126.394 199.703C125.033 199.534 123.674 199.349 122.332 199.164C120.985 198.974 119.649 198.779 118.319 198.579C119.327 200.581 120.349 202.551 121.39 204.488C122.431 206.432 123.486 208.342 124.559 210.226C125.632 212.116 126.72 213.968 127.82 215.793C128.92 217.623 130.04 219.416 131.168 221.182C132.848 219.721 134.536 218.223 136.227 216.691C136.982 216.002 137.737 215.307 138.5 214.602C137.55 212.85 136.62 211.067 135.697 209.267C136.976 209.463 138.262 209.654 139.559 209.84C140.713 209.998 141.866 210.162 143.032 210.315C144.142 209.241 145.255 208.149 146.368 207.047C148.059 205.364 149.748 203.648 151.433 201.897C150.048 201.827 148.664 201.752 147.275 201.664Z" fill="#27859A"/>
<path d="M213.563 103.786C211.514 103.238 209.432 102.705 207.314 102.192C205.404 101.733 203.471 101.29 201.504 100.856L201.499 100.855C201.283 100.81 201.069 100.76 200.854 100.715C198.67 100.246 196.446 99.7969 194.187 99.3671C194.747 100.585 195.301 101.808 195.854 103.036C196.407 104.27 196.954 105.509 197.495 106.753C198.036 108.003 198.576 109.258 199.104 110.524C199.637 111.796 200.159 113.072 200.674 114.359C201.194 115.646 201.698 116.937 202.196 118.229C202.694 119.525 203.18 120.821 203.655 122.116C204.136 123.417 204.605 124.717 205.068 126.022C205.532 127.322 205.989 128.626 206.441 129.936C207.676 127.86 208.882 125.792 210.048 123.733C210.491 122.952 210.928 122.17 211.36 121.388C210.847 120.219 210.337 119.072 209.817 117.919C209.283 116.737 208.742 115.56 208.201 114.388C210.321 114.802 212.407 115.234 214.456 115.687C215.195 114.287 215.922 112.891 216.632 111.5C217.66 109.485 218.653 107.485 219.606 105.492C217.629 104.906 215.616 104.339 213.563 103.786ZM304.278 159.755C304.13 157.933 303.785 156.118 303.254 154.321C302.723 152.53 302.011 150.752 301.118 148.994C300.231 147.242 299.162 145.509 297.923 143.802L287.849 129.874C288.015 130.111 288.176 130.341 288.337 130.578C288.513 130.837 288.688 131.103 288.858 131.368C289.043 131.65 289.227 131.939 289.407 132.227C289.634 132.608 289.863 132.984 290.074 133.364C290.231 133.639 290.389 133.919 290.535 134.199C290.55 134.223 290.559 134.246 290.574 134.269C290.696 134.497 290.813 134.724 290.93 134.951C290.964 135.015 290.997 135.085 291.026 135.149C291.167 135.428 291.302 135.707 291.431 135.985C291.45 136.026 291.469 136.067 291.489 136.107C291.627 136.409 291.761 136.71 291.893 137.017C292.012 137.294 292.124 137.577 292.236 137.86C292.306 138.038 292.381 138.223 292.445 138.407C292.514 138.597 292.583 138.787 292.653 138.977C292.918 139.73 293.151 140.48 293.349 141.233C293.396 141.416 293.443 141.604 293.49 141.792C293.507 141.855 293.519 141.918 293.537 141.98C293.582 142.191 293.632 142.401 293.677 142.617C293.726 142.85 293.774 143.089 293.818 143.321C293.878 143.628 293.932 143.94 293.974 144.256C294.011 144.493 294.049 144.731 294.074 144.973C294.108 145.25 294.143 145.527 294.166 145.802C294.168 145.847 294.176 145.887 294.178 145.926C294.194 146.089 294.208 146.258 294.212 146.421C294.235 146.635 294.246 146.848 294.251 147.066C294.259 147.179 294.267 147.291 294.264 147.403C294.276 147.605 294.282 147.812 294.277 148.018C294.283 148.153 294.284 148.287 294.279 148.415C294.283 148.645 294.276 148.879 294.269 149.107C294.24 150.044 294.166 150.983 294.035 151.928C293.302 157.319 290.965 162.415 287.228 167.144C283.485 171.873 278.347 176.228 272.006 180.143C265.687 184.053 258.181 187.518 249.705 190.481C248.638 190.855 247.556 191.217 246.462 191.577C245.967 191.74 245.466 191.901 244.961 192.057C243.897 192.392 242.823 192.721 241.732 193.037C241.095 193.227 240.459 193.406 239.816 193.59C239.764 193.608 239.707 193.621 239.656 193.633C238.962 193.83 238.263 194.021 237.553 194.21C236.848 194.401 236.139 194.579 235.423 194.763C234.708 194.947 233.988 195.125 233.261 195.302C233.004 195.371 232.747 195.429 232.49 195.493C231.718 195.678 230.935 195.862 230.153 196.041C229.834 196.11 229.514 196.186 229.194 196.255C228.532 196.404 227.865 196.547 227.192 196.69C226.291 196.881 225.391 197.067 224.479 197.247C223.573 197.432 222.657 197.606 221.735 197.779C221.887 199.333 222.023 200.881 222.143 202.416C222.268 203.957 222.377 205.486 222.465 207.002C222.558 208.523 222.635 210.033 222.685 211.523C222.741 213.02 222.77 214.497 222.783 215.962C222.834 224.265 222.297 231.924 221.206 238.862C220.101 245.822 218.438 252.045 216.233 257.459C214.028 262.879 211.288 267.474 208.036 271.174C204.789 274.874 201.042 277.674 196.822 279.498C195.573 280.042 194.31 280.49 193.02 280.847C191.73 281.209 190.42 281.474 189.089 281.648C187.763 281.823 186.416 281.907 185.048 281.905C183.687 281.898 182.303 281.806 180.899 281.628C180.366 281.558 179.834 281.477 179.298 281.379C179.049 281.337 178.801 281.289 178.552 281.242C177.189 280.972 175.809 280.623 174.419 280.194C174.184 280.12 173.948 280.045 173.714 279.965C173.446 279.877 173.178 279.789 172.906 279.689C172.633 279.595 172.36 279.495 172.088 279.396C171.815 279.296 171.543 279.191 171.271 279.085C171.07 279.008 170.863 278.925 170.657 278.841C170.537 278.793 170.424 278.745 170.304 278.696C170.082 278.6 169.859 278.51 169.631 278.408C169.1 278.182 168.57 277.939 168.04 277.69L183.777 285.152C184.836 285.655 185.894 286.107 186.938 286.519C187.988 286.932 189.029 287.299 190.064 287.616C191.098 287.938 192.131 288.209 193.15 288.435C194.17 288.661 195.182 288.841 196.186 288.971C197.529 289.149 198.856 289.243 200.167 289.251C201.478 289.26 202.769 289.177 204.043 289.015C205.312 288.847 206.571 288.6 207.803 288.261C209.035 287.917 210.252 287.494 211.442 286.978C215.481 285.241 219.061 282.578 222.16 279.051C225.264 275.524 227.875 271.136 229.966 265.959C232.056 260.792 233.63 254.842 234.66 248.189C235.682 241.558 236.171 234.231 236.086 226.289C236.073 224.891 236.039 223.469 235.978 222.039C235.923 220.61 235.846 219.168 235.753 217.713C235.661 216.258 235.552 214.797 235.427 213.323C235.308 211.849 235.167 210.368 235.021 208.881C244.732 207.105 253.722 204.791 261.803 201.998C269.913 199.196 277.086 195.906 283.132 192.186C289.189 188.462 294.097 184.317 297.666 179.804C301.229 175.296 303.452 170.431 304.139 165.271C304.386 163.424 304.43 161.584 304.278 159.755ZM278.057 140.133C277.327 138.795 276.434 137.462 275.396 136.128C275.365 136.092 275.34 136.056 275.309 136.021C275.151 135.818 274.993 135.621 274.824 135.418C273.909 134.295 272.887 133.18 271.764 132.069C271.613 131.917 271.457 131.765 271.3 131.619C270.456 130.804 269.561 129.995 268.61 129.188C268.469 129.065 268.321 128.942 268.174 128.824C267.927 128.614 267.674 128.41 267.415 128.205C266.988 127.859 266.556 127.511 266.107 127.169C265.747 126.894 265.387 126.62 265.017 126.345C264.942 126.294 264.868 126.238 264.794 126.182C264.481 125.956 264.169 125.725 263.844 125.498C263.293 125.102 262.724 124.705 262.138 124.318C261.83 124.104 261.515 123.895 261.195 123.685C260.758 123.399 260.316 123.113 259.867 122.826C259.558 122.628 259.243 122.43 258.927 122.237C258.762 122.129 258.59 122.026 258.413 121.923C257.799 121.545 257.167 121.165 256.529 120.796C256.234 120.622 255.934 120.453 255.628 120.278C255.22 120.045 254.813 119.811 254.393 119.583C253.888 119.302 253.372 119.021 252.851 118.74C252.464 118.531 252.07 118.326 251.677 118.122C251.371 117.958 251.063 117.8 250.756 117.641C249.403 116.953 248.011 116.268 246.579 115.59C246.443 115.529 246.314 115.463 246.179 115.402C245.952 115.295 245.724 115.193 245.497 115.091C245.075 114.891 244.648 114.7 244.22 114.504C243.327 114.104 242.416 113.708 241.5 113.312C241.115 113.147 240.729 112.983 240.338 112.823C239.953 112.659 239.563 112.494 239.166 112.334C238.585 112.093 237.993 111.856 237.4 111.619C235.519 110.873 233.587 110.139 231.603 109.423C231.354 109.94 231.106 110.457 230.852 110.979C230.598 111.496 230.344 112.018 230.089 112.54C229.154 114.45 228.189 116.369 227.191 118.296C227.111 118.452 227.031 118.608 226.946 118.763C226.213 120.175 225.461 121.596 224.693 123.022C223.93 124.443 223.144 125.873 222.348 127.302C220.728 130.203 219.046 133.122 217.301 136.046C217.23 136.169 217.153 136.292 217.081 136.415C215.905 138.389 214.701 140.362 213.462 142.343C212.788 143.424 212.108 144.511 211.417 145.596C212.379 148.897 213.285 152.187 214.131 155.467C214.976 158.753 215.765 162.034 216.495 165.294C217.224 168.559 217.887 171.808 218.496 175.036C219.098 178.269 219.646 181.481 220.124 184.664C223.846 183.964 227.434 183.185 230.871 182.333C230.554 180.81 230.221 179.275 229.871 177.739C229.159 174.609 228.392 171.469 227.565 168.313C226.743 165.164 225.865 162.004 224.927 158.834C226.79 155.902 228.591 152.971 230.329 150.057C232.068 147.137 233.744 144.235 235.345 141.343C236.953 138.453 238.492 135.579 239.967 132.722C241.437 129.871 242.838 127.042 244.17 124.23C249.183 126.062 253.862 128.013 258.17 130.046C262.5 132.087 266.453 134.215 270.003 136.401C273.57 138.594 276.723 140.843 279.435 143.125C279.065 142.135 278.606 141.131 278.057 140.133Z" fill="#27859A"/>
<path d="M231.658 33.4258C231.607 33.3659 231.556 33.3004 231.499 33.2455C231.607 33.3659 231.715 33.4917 231.817 33.6227C231.766 33.5572 231.715 33.4917 231.658 33.4258ZM22.5724 131.136C22.5166 131.417 22.4664 131.698 22.4325 131.986C22.4715 131.704 22.5222 131.417 22.578 131.137C22.6537 130.746 22.7517 130.357 22.8608 129.969C22.7461 130.356 22.6537 130.746 22.5724 131.136ZM157.624 41.0106C157.351 40.704 157.079 40.3919 156.811 40.0914C157.146 40.4643 157.475 40.8423 157.803 41.2259C158.163 41.6399 158.523 42.0539 158.882 42.4735C158.461 41.982 158.04 41.4961 157.624 41.0106Z" fill="#58C4DC"/>
<path d="M294.264 149.107C294.27 148.878 294.278 148.644 294.273 148.415C294.278 148.287 294.277 148.153 294.271 148.018C294.276 147.812 294.27 147.604 294.258 147.402C294.261 147.291 294.253 147.178 294.245 147.066C294.24 146.848 294.229 146.634 294.207 146.42C294.203 146.258 294.188 146.089 294.173 145.926C294.17 145.886 294.162 145.847 294.16 145.802C294.137 145.526 294.103 145.25 294.069 144.973C294.043 144.731 294.005 144.493 293.968 144.255C293.926 143.939 293.872 143.627 293.812 143.321C293.769 143.088 293.72 142.85 293.671 142.617C293.627 142.401 293.576 142.19 293.531 141.98C293.514 141.917 293.502 141.855 293.484 141.792C293.437 141.604 293.391 141.416 293.343 141.233C293.145 140.48 292.913 139.729 292.647 138.976C292.578 138.786 292.509 138.597 292.44 138.407C292.376 138.223 292.3 138.038 292.23 137.859C292.118 137.577 292.006 137.294 291.888 137.016C291.755 136.71 291.622 136.409 291.483 136.107C291.464 136.066 291.444 136.026 291.425 135.985C291.296 135.707 291.161 135.428 291.02 135.148C290.875 134.857 290.725 134.561 290.568 134.269C290.553 134.245 290.544 134.222 290.529 134.199C290.377 133.918 290.225 133.644 290.068 133.363C289.857 132.983 289.629 132.608 289.401 132.226C289.222 131.938 289.037 131.65 288.852 131.367C288.682 131.102 288.507 130.837 288.331 130.577C288.17 130.341 288.009 130.11 287.843 129.874C285.774 126.961 283.234 124.123 280.261 121.373C275.234 116.724 268.965 112.339 261.653 108.297C258.838 106.739 255.873 105.237 252.764 103.79C247.842 101.501 242.562 99.3577 236.967 97.3625C237.555 95.9448 238.133 94.5262 238.692 93.1174C239.252 91.7086 239.8 90.31 240.319 88.9204C240.843 87.5312 241.345 86.1513 241.823 84.7863C242.295 83.4209 242.749 82.0653 243.175 80.7242C243.414 79.9718 243.646 79.2301 243.867 78.4876C244.065 77.827 244.262 77.1775 244.448 76.5272C244.48 76.4123 244.511 76.303 244.542 76.1937C244.743 75.4943 244.938 74.7999 245.121 74.1103C245.152 74.0009 245.183 73.8972 245.208 73.793C245.374 73.1802 245.528 72.5776 245.682 71.9751C245.845 71.3285 246.008 70.682 246.16 70.0457C246.354 69.2116 246.543 68.3827 246.719 67.5695C246.805 67.1907 246.886 66.8114 246.961 66.4318C247.002 66.2562 247.033 66.0854 247.069 65.915C247.123 65.6566 247.177 65.3926 247.226 65.1338C247.282 64.8421 247.339 64.5504 247.39 64.2583C247.446 63.9721 247.497 63.6855 247.548 63.3989C247.774 62.1594 247.972 60.9344 248.14 59.7349C248.253 58.9336 248.355 58.1425 248.444 57.3672C248.475 57.1181 248.5 56.8687 248.526 56.6192C248.57 56.2706 248.603 55.9267 248.636 55.5828C248.671 55.1274 248.718 54.684 248.753 54.2397C248.826 53.3067 248.882 52.3834 248.921 51.4755C248.933 51.2474 248.939 51.0243 248.946 50.8013C248.958 50.5005 248.965 50.2049 248.971 49.9092C248.975 49.7195 248.979 49.5298 248.977 49.3396C248.979 49.1721 248.981 49.0046 248.983 48.8371C248.988 48.4129 248.982 47.9988 248.975 47.5847C248.976 47.501 248.971 47.4224 248.972 47.3442C248.964 46.9523 248.955 46.5605 248.935 46.1733C248.93 45.9605 248.919 45.7473 248.907 45.5396C248.899 45.2875 248.885 45.0349 248.865 44.7875C248.853 44.5182 248.829 44.2481 248.805 43.9836C248.798 43.7986 248.779 43.6127 248.759 43.4323C248.737 43.1455 248.71 42.8528 248.676 42.5707C248.678 42.5429 248.68 42.5207 248.671 42.4921C248.633 42.1147 248.585 41.7364 248.535 41.3693C248.517 41.2449 248.504 41.1265 248.485 41.0077C248.445 40.6692 248.392 40.3409 248.334 40.0122C248.316 39.8878 248.297 39.7745 248.278 39.6557C248.213 39.2761 248.147 38.9076 248.069 38.5383C248.037 38.3737 248.005 38.2091 247.968 38.0497C247.841 37.4529 247.708 36.8668 247.557 36.296C247.501 36.0792 247.445 35.868 247.383 35.6508C247.318 35.411 247.247 35.1707 247.176 34.9359C247.113 34.7354 247.056 34.5409 246.988 34.3399C246.668 33.3479 246.306 32.3916 245.908 31.4716C245.804 31.2231 245.694 30.9798 245.579 30.7415C245.469 30.4981 245.353 30.2599 245.231 30.0267C245.12 29.8 245.004 29.5729 244.881 29.3508C244.881 29.3453 244.877 29.3337 244.872 29.3277C244.866 29.3217 244.867 29.3162 244.862 29.3102C244.739 29.0881 244.616 28.8661 244.493 28.6496C244.36 28.4211 244.226 28.1982 244.092 27.9753C243.983 27.8046 243.878 27.6343 243.768 27.4635C241.933 24.653 239.632 22.3366 236.851 20.5579C235.859 19.9152 234.821 19.3527 233.733 18.8644C232.65 18.3766 231.522 17.969 230.354 17.6309C229.186 17.2984 227.974 17.035 226.715 16.8519C225.463 16.6692 224.171 16.556 222.834 16.5176C219.65 16.4339 216.244 16.7629 212.636 17.5064C209.034 18.2503 205.226 19.4027 201.234 20.9597C197.254 22.5177 193.091 24.4747 188.762 26.8265C184.444 29.1738 179.967 31.9163 175.352 35.0503C174.202 35.8314 173.045 36.6397 171.887 37.4703C170.728 38.301 169.567 39.1538 168.405 40.0288C167.237 40.9034 166.073 41.7951 164.903 42.703C163.773 43.5862 162.637 44.4801 161.507 45.38C161.465 45.4103 161.429 45.4465 161.387 45.4767C160.553 44.4609 159.713 43.4613 158.877 42.4732C158.517 42.0537 158.158 41.6397 157.798 41.2257C157.469 40.8421 157.14 40.4641 156.805 40.0911C156.656 39.9173 156.502 39.7486 156.352 39.5804C155.513 38.6367 154.666 37.7149 153.818 36.8152C152.974 35.9216 152.124 35.0442 151.271 34.2C147.86 30.8236 144.478 27.8575 141.136 25.3025C137.805 22.7594 134.52 20.6224 131.286 18.8974C128.064 17.1733 124.899 15.8617 121.808 14.9527C118.723 14.0553 115.706 13.5601 112.78 13.4801C111.555 13.4448 110.341 13.4831 109.149 13.5958C107.957 13.7085 106.782 13.8896 105.619 14.1442C104.46 14.3992 103.319 14.7282 102.194 15.1312C101.074 15.5346 99.9655 16.0115 98.8796 16.5573C95.2074 18.4022 91.9179 21.0094 89.0388 24.3139C86.154 27.6181 83.6732 31.6303 81.6224 36.3023C79.56 40.9791 77.9213 46.3263 76.7333 52.2847C75.5384 58.2594 74.7925 64.8675 74.5223 72.0551C74.4725 73.3253 74.4432 74.6195 74.4302 75.9206C74.4224 77.2276 74.4248 78.5467 74.449 79.8731C74.4673 81.2045 74.5014 82.5484 74.5457 83.9043C74.5905 85.2546 74.6511 86.6174 74.722 87.9921C65.8828 90.0215 57.7488 92.4922 50.4646 95.3484C43.2091 98.1958 36.7858 101.439 31.3449 105.022C25.9104 108.594 21.4407 112.516 18.091 116.739C14.7357 120.962 12.494 125.496 11.5099 130.291C10.5306 135.098 10.8836 139.859 12.4452 144.509C14.0111 149.176 16.8023 153.733 20.6895 158.114C24.5968 162.524 29.6228 166.754 35.6437 170.739C37.8073 172.167 40.0965 173.566 42.5174 174.931C42.5439 174.95 42.5765 174.964 42.603 174.982C42.6942 175.034 42.791 175.087 42.8878 175.139L42.8934 175.14C43.0865 175.25 43.2796 175.36 43.4728 175.47C43.6663 175.575 43.8655 175.68 44.0642 175.791C44.3708 175.955 44.677 176.124 44.9837 176.288C45.2899 176.458 45.6021 176.622 45.9143 176.786C46.2265 176.951 46.5387 177.115 46.8569 177.274C47.1747 177.439 47.4929 177.598 47.8107 177.763C48.296 178.008 48.7868 178.254 49.2776 178.499C49.828 178.772 50.3895 179.045 50.9514 179.313C51.0486 179.36 51.1459 179.407 51.2435 179.448C51.7892 179.709 52.3353 179.964 52.8925 180.221C54.1578 180.812 55.4471 181.384 56.7647 181.951C56.6416 182.232 56.5185 182.513 56.4014 182.789C55.9219 183.891 55.4541 184.989 54.9973 186.087C54.4235 187.461 53.8613 188.831 53.3166 190.19C52.7775 191.55 52.2505 192.9 51.7466 194.241C51.2478 195.587 50.7671 196.919 50.31 198.235C47.7287 205.721 45.8415 212.725 44.6479 219.18C43.447 225.657 42.9449 231.592 43.1418 236.911C43.3369 242.252 44.2309 246.977 45.8348 251.021C47.4433 255.077 49.7561 258.451 52.7847 261.065C53.6819 261.845 54.6301 262.546 55.6235 263.172C56.617 263.798 57.6615 264.344 58.7512 264.816C59.0768 264.954 59.4028 265.085 59.7348 265.212C59.9254 265.283 60.1216 265.355 60.3127 265.42C60.4545 265.47 60.5963 265.521 60.7441 265.566C60.9077 265.623 61.0769 265.681 61.2415 265.728C61.3014 265.749 61.3563 265.765 61.4111 265.78C61.6026 265.84 61.8002 265.895 61.9977 265.95C62.0911 265.974 62.1789 265.998 62.2723 266.022C62.289 266.023 62.3053 266.03 62.322 266.031C62.3555 266.034 62.3824 266.047 62.4154 266.055C62.4977 266.079 62.5855 266.102 62.6682 266.12C62.8328 266.167 63.0033 266.208 63.1743 266.244L63.191 266.245C63.4164 266.302 63.6482 266.348 63.8749 266.389C63.9242 266.404 63.9739 266.413 64.0236 266.423C64.1063 266.44 64.1834 266.458 64.2666 266.47C64.4765 266.509 64.6865 266.548 64.9025 266.581L64.9137 266.582C65.2235 266.635 65.5393 266.682 65.8612 266.724C68.9195 267.116 72.225 267.076 75.7611 266.6C79.3087 266.12 83.0873 265.2 87.0793 263.85C91.0768 262.5 95.283 260.709 99.6803 258.485C104.084 256.257 108.672 253.595 113.43 250.506C114.618 249.734 115.814 248.928 117.012 248.101C118.209 247.273 119.415 246.419 120.622 245.542C121.83 244.664 123.045 243.76 124.261 242.845C125.483 241.929 126.7 240.992 127.925 240.043C128.778 241.234 129.632 242.414 130.499 243.577C131.361 244.741 132.234 245.888 133.104 247.019C133.979 248.149 134.861 249.258 135.746 250.345C136.63 251.427 137.522 252.492 138.421 253.524C138.519 253.638 138.622 253.752 138.72 253.861C142.226 257.882 145.748 261.49 149.259 264.668C152.88 267.954 156.485 270.787 160.056 273.148C162.741 274.925 165.402 276.443 168.034 277.69C168.564 277.938 169.094 278.181 169.626 278.408C169.853 278.51 170.076 278.6 170.298 278.696C170.418 278.744 170.532 278.792 170.651 278.841C170.858 278.924 171.064 279.007 171.266 279.085C171.538 279.19 171.81 279.295 172.082 279.395C172.354 279.495 172.627 279.595 172.9 279.689C173.172 279.789 173.44 279.877 173.708 279.965C173.943 280.045 174.178 280.119 174.413 280.194C175.803 280.622 177.183 280.971 178.547 281.241C178.795 281.289 179.044 281.336 179.293 281.378C179.829 281.476 180.361 281.558 180.893 281.628C182.298 281.805 183.681 281.898 185.043 281.905C186.411 281.907 187.757 281.823 189.083 281.648C190.414 281.474 191.725 281.208 193.015 280.846C194.304 280.49 195.568 280.042 196.816 279.498C201.036 277.674 204.784 274.874 208.03 271.173C211.283 267.474 214.023 262.878 216.228 257.458C218.432 252.044 220.095 245.821 221.2 238.862C222.291 231.923 222.829 224.265 222.778 215.962C222.764 214.497 222.735 213.019 222.68 211.523C222.629 210.032 222.552 208.523 222.459 207.001C222.371 205.485 222.262 203.957 222.137 202.416C222.017 200.881 221.881 199.333 221.729 197.779C222.651 197.605 223.568 197.432 224.474 197.246C225.385 197.067 226.285 196.881 227.186 196.689C227.859 196.547 228.526 196.404 229.189 196.255C229.508 196.185 229.828 196.11 230.147 196.04C230.93 195.862 231.712 195.677 232.484 195.492C232.741 195.429 232.998 195.371 233.256 195.302C233.982 195.125 234.702 194.947 235.418 194.763C236.133 194.579 236.842 194.4 237.547 194.21C238.257 194.02 238.956 193.83 239.65 193.633C239.702 193.62 239.759 193.608 239.811 193.59C240.453 193.406 241.089 193.227 241.727 193.037C242.817 192.72 243.891 192.392 244.955 192.057C245.461 191.901 245.961 191.739 246.456 191.577C247.55 191.216 248.633 190.855 249.699 190.481C258.175 187.517 265.681 184.053 272 180.142C278.342 176.228 283.479 171.872 287.222 167.144C290.959 162.415 293.296 157.318 294.03 151.927C294.16 150.982 294.235 150.044 294.264 149.107ZM168.967 53.9994C169.004 53.9632 169.045 53.9329 169.081 53.9078C169.937 53.2209 170.797 52.5512 171.651 51.8865C172.75 51.0344 173.848 50.199 174.943 49.3858C176.034 48.5665 177.129 47.7644 178.216 46.9896C179.303 46.2148 180.384 45.4563 181.462 44.7255C185.454 42.0284 189.302 39.6554 192.978 37.6208C196.66 35.5866 200.169 33.8854 203.483 32.5319C206.797 31.1785 209.915 30.1728 212.797 29.523C215.691 28.8741 218.349 28.5865 220.749 28.6586C221.548 28.6881 222.317 28.7544 223.059 28.8633C223.802 28.9722 224.514 29.1178 225.194 29.3112C225.874 29.499 226.523 29.7346 227.14 30.0069C227.758 30.2792 228.338 30.5989 228.888 30.9552C229.031 31.0504 229.17 31.1451 229.308 31.2398C229.403 31.3088 229.499 31.3779 229.589 31.4464C229.79 31.602 229.99 31.7631 230.179 31.9233C230.274 32.0034 230.363 32.0831 230.451 32.1683C230.817 32.5046 231.17 32.8622 231.499 33.2458C231.556 33.3006 231.607 33.3661 231.658 33.426C231.715 33.4919 231.766 33.5574 231.817 33.6229C231.827 33.6349 231.832 33.6465 231.837 33.6525C231.945 33.7783 232.046 33.9093 232.142 34.0454C232.244 34.1819 232.344 34.324 232.44 34.4657C233.033 35.3284 233.552 36.2803 234.003 37.3218C235.13 39.9478 235.808 43.1421 236.02 46.8527C236.036 47.083 236.045 47.3129 236.055 47.5484C236.226 51.5632 235.869 56.1566 234.989 61.262C234.109 66.3785 232.7 72.0065 230.758 78.0786C230.363 79.316 229.938 80.5734 229.497 81.8351C229.055 83.1023 228.589 84.3788 228.101 85.6647C227.618 86.9511 227.112 88.2467 226.595 89.5471C226.077 90.853 225.541 92.1687 224.989 93.4831C222.079 92.6275 219.105 91.8171 216.065 91.0462C213.031 90.2814 209.937 89.5566 206.778 88.8714C203.636 88.193 200.435 87.5547 197.179 86.9624C195.88 86.7258 194.57 86.4938 193.252 86.2781C191.283 85.9438 189.29 85.6244 187.278 85.3259C185.787 82.4755 184.275 79.6849 182.729 76.9643C181.194 74.2501 179.631 71.6063 178.052 69.0284C176.472 66.456 174.87 63.9544 173.25 61.5298C171.636 59.1055 170 56.7577 168.352 54.4817C168.555 54.319 168.764 54.1566 168.967 53.9994ZM102.729 162.125C102.641 161.884 102.554 161.642 102.472 161.395C102.38 161.148 102.293 160.901 102.206 160.653C101.496 158.63 100.809 156.614 100.149 154.601C99.484 152.587 98.8462 150.581 98.2307 148.576C97.6148 146.577 97.0263 144.586 96.4541 142.602C95.8874 140.618 95.3375 138.635 94.8145 136.666C96.0411 134.835 97.2849 132.999 98.5514 131.16C99.1398 130.312 99.7341 129.46 100.328 128.612C101.022 127.628 101.717 126.643 102.423 125.659C103.733 123.829 105.061 122 106.416 120.174C106.429 120.152 106.447 120.132 106.46 120.11C107.125 119.218 107.789 118.326 108.46 117.435C109.148 116.522 109.843 115.61 110.537 114.698C111.556 113.371 112.574 112.054 113.602 110.749C113.982 110.265 114.362 109.786 114.741 109.308C116.149 107.53 117.566 105.77 118.993 104.027C119.582 103.314 120.171 102.6 120.76 101.892C121.603 100.874 122.444 99.8735 123.291 98.873C124.731 97.1761 126.176 95.5018 127.629 93.845C129.656 93.8094 131.699 93.7863 133.768 93.7875C135.836 93.7887 137.932 93.8088 140.042 93.8469C142.159 93.8854 144.29 93.9475 146.448 94.0284C147.392 94.0639 148.337 94.1049 149.286 94.1519C150.236 94.1933 151.191 94.2408 152.151 94.2997C152.43 94.3106 152.715 94.3275 152.994 94.3439C154.417 94.4283 155.834 94.5178 157.238 94.6231C158.008 94.6783 158.777 94.7334 159.546 94.7941C161.713 94.9652 163.857 95.1567 165.982 95.3636C168.113 95.5765 170.22 95.8043 172.303 96.047C174.397 96.2961 176.462 96.5542 178.515 96.8335C179.413 98.6648 180.298 100.523 181.176 102.397C182.053 104.283 182.918 106.184 183.769 108.112C184.169 109.015 184.563 109.918 184.957 110.827C185.407 111.868 185.851 112.915 186.289 113.972C187.12 115.954 187.932 117.952 188.731 119.977C189.535 122.007 190.316 124.042 191.07 126.074C191.833 128.118 192.569 130.16 193.288 132.206C194.001 134.252 194.697 136.302 195.37 138.356C196.044 140.409 196.695 142.461 197.329 144.518C196.062 146.43 194.779 148.34 193.467 150.254C192.156 152.162 190.822 154.074 189.46 155.984C188.098 157.894 186.72 159.803 185.313 161.709C183.907 163.615 182.478 165.52 181.028 167.417C179.577 169.315 178.117 171.195 176.647 173.051C175.177 174.908 173.698 176.741 172.215 178.558C170.727 180.368 169.228 182.161 167.732 183.932C166.229 185.702 164.718 187.45 163.203 189.169C161.07 189.134 158.921 189.076 156.752 189C154.594 188.925 152.415 188.826 150.221 188.708C148.033 188.586 145.835 188.446 143.616 188.282C141.403 188.118 139.175 187.931 136.933 187.715C134.696 187.505 132.488 187.269 130.305 187.013C128.583 186.816 126.873 186.603 125.186 186.374C124.742 186.323 124.304 186.26 123.866 186.203C121.752 185.913 119.663 185.603 117.608 185.284C115.548 184.96 113.523 184.621 111.521 184.273C110.679 182.362 109.856 180.437 109.045 178.495C108.233 176.559 107.44 174.602 106.665 172.629C105.884 170.662 105.127 168.68 104.382 166.682C104.1 165.922 103.817 165.167 103.541 164.402C103.265 163.643 102.994 162.884 102.729 162.125ZM85.9354 150.707C86.3061 151.977 86.6824 153.247 87.0642 154.518C87.4512 155.795 87.8442 157.066 88.2479 158.344C88.6461 159.622 89.0605 160.907 89.4809 162.186C89.9013 163.465 90.3325 164.751 90.7752 166.032C91.2174 167.319 91.6717 168.596 92.132 169.867C92.5919 171.144 93.0582 172.41 93.5305 173.671C94.0084 174.933 94.4863 176.194 94.9762 177.446C95.144 177.878 95.3117 178.31 95.4794 178.743C95.8011 179.567 96.1289 180.387 96.4571 181.201C95.7801 181.041 95.1143 180.882 94.4484 180.724C93.0014 180.375 91.572 180.016 90.1713 179.648C88.1224 179.112 86.1142 178.557 84.1519 177.988C82.1952 177.42 80.2787 176.839 78.4031 176.238C76.527 175.643 74.6972 175.029 72.9078 174.402C73.8684 172.46 74.8578 170.51 75.8814 168.551C76.9051 166.592 77.9579 164.618 79.0446 162.642C80.1309 160.671 81.2463 158.686 82.3961 156.692C83.5454 154.704 84.7234 152.707 85.9354 150.707ZM87.3572 97.3945C89.2945 97.0724 91.2583 96.7691 93.2598 96.4856C93.7589 96.4133 94.2636 96.3413 94.7678 96.275C96.0151 96.0996 97.2723 95.9418 98.5517 95.7857C98.8235 95.7513 99.0949 95.7224 99.3668 95.688C100.928 95.5095 102.512 95.3383 104.111 95.1739C104.371 95.1498 104.631 95.1256 104.896 95.1018C105.157 95.072 105.416 95.0478 105.682 95.0241C107.822 94.8242 110 94.6497 112.21 94.4944C111.306 95.5854 110.401 96.6819 109.495 97.784C108.589 98.8916 107.689 99.9997 106.793 101.114C105.898 102.228 105.002 103.353 104.116 104.485C103.225 105.616 102.339 106.753 101.458 107.907C100.577 109.056 99.7065 110.205 98.8416 111.361C97.9827 112.511 97.1289 113.668 96.2863 114.825C95.4385 115.977 94.6014 117.134 93.7755 118.293C92.944 119.451 92.1176 120.615 91.3028 121.775C90.8572 119.678 90.4442 117.594 90.0582 115.524C90.0263 115.359 89.9949 115.189 89.9686 115.025C89.6697 113.414 89.3921 111.817 89.1309 110.226C89.0803 109.942 89.0354 109.659 88.9905 109.376C88.6631 107.344 88.3623 105.331 88.0884 103.331C87.8197 101.337 87.578 99.3566 87.3572 97.3945ZM182.533 185.564C183.488 184.405 184.438 183.233 185.384 182.056C186.329 180.879 187.269 179.696 188.204 178.501C189.145 177.307 190.075 176.101 191.001 174.888C191.932 173.677 192.847 172.458 193.75 171.244C194.654 170.024 195.552 168.804 196.439 167.583C197.325 166.362 198.202 165.135 199.072 163.913C199.942 162.691 200.807 161.462 201.661 160.239C202.223 162.485 202.759 164.724 203.255 166.953C203.757 169.189 204.232 171.412 204.674 173.626C205.111 175.84 205.525 178.041 205.907 180.234C206.192 181.883 206.461 183.519 206.713 185.154C206.799 185.697 206.88 186.24 206.96 186.783C206.416 186.857 205.867 186.926 205.318 186.994C203.698 187.196 202.057 187.391 200.4 187.567C198.189 187.806 195.941 188.025 193.666 188.215C191.392 188.404 189.091 188.569 186.754 188.703C184.422 188.843 182.064 188.953 179.669 189.038C180.629 187.884 181.583 186.73 182.533 185.564ZM211.36 121.389C210.928 122.17 210.491 122.952 210.048 123.733C208.882 125.792 207.676 127.86 206.441 129.936C205.989 128.626 205.532 127.322 205.068 126.022C204.605 124.717 204.135 123.417 203.655 122.116C203.18 120.821 202.693 119.525 202.196 118.229C201.698 116.938 201.194 115.646 200.674 114.359C200.158 113.072 199.637 111.796 199.104 110.524C198.576 109.259 198.036 108.003 197.495 106.753C196.954 105.509 196.407 104.27 195.854 103.036C195.301 101.808 194.747 100.585 194.187 99.3672C196.446 99.797 198.67 100.246 200.853 100.715C201.069 100.76 201.283 100.81 201.498 100.855L201.504 100.856C203.471 101.29 205.404 101.734 207.314 102.192C209.432 102.705 211.514 103.239 213.562 103.786C215.616 104.339 217.628 104.906 219.606 105.492C218.653 107.485 217.659 109.485 216.631 111.5C215.922 112.891 215.195 114.287 214.456 115.687C214.12 116.32 213.785 116.953 213.443 117.585C212.76 118.85 212.072 120.115 211.36 121.389ZM153.531 67.2213C155.158 65.7179 156.787 64.2538 158.409 62.8227C159.525 64.3805 160.626 65.9819 161.725 67.6111C162.824 69.2458 163.914 70.9189 164.991 72.6245C166.078 74.3365 167.146 76.0806 168.21 77.8635C168.993 79.1715 169.763 80.4952 170.531 81.8412C170.812 82.3328 171.087 82.8239 171.368 83.3211C170.628 83.2459 169.894 83.1712 169.148 83.1012L169.142 83.1007C168.547 83.0426 167.946 82.9895 167.344 82.9364C166.003 82.8138 164.655 82.6962 163.301 82.5894C161.947 82.4825 160.588 82.3752 159.221 82.2896C157.861 82.1934 156.488 82.113 155.109 82.0377C153.736 81.9628 152.361 81.899 150.997 81.8472C149.639 81.7903 148.281 81.7446 146.932 81.7108C145.584 81.6714 144.241 81.6436 142.902 81.6218C141.564 81.6 140.237 81.5846 138.909 81.5692C140.528 79.8808 142.15 78.2206 143.77 76.5937C145.396 74.9672 147.018 73.3741 148.65 71.8096C150.276 70.2503 151.899 68.7187 153.531 67.2213ZM87.7136 54.7386C88.5425 49.9198 89.6732 45.611 91.0836 41.8775C92.4936 38.1496 94.1787 34.9855 96.1224 32.4509C98.0657 29.9219 100.263 28.0109 102.702 26.7952C103.31 26.491 103.936 26.2275 104.581 26.0047C105.221 25.7869 105.88 25.6042 106.558 25.4677C107.231 25.3253 107.923 25.229 108.628 25.1673C109.333 25.1112 110.052 25.0953 110.785 25.1196C112.994 25.1878 115.331 25.6293 117.774 26.4258C120.218 27.2222 122.772 28.3795 125.406 29.8895C128.051 31.4003 130.78 33.2699 133.571 35.4852C136.372 37.707 139.236 40.2802 142.145 43.1979C142.935 43.9923 143.723 44.8089 144.503 45.6473C144.513 45.6592 144.529 45.6717 144.539 45.6837C145.315 46.5161 146.083 47.3647 146.855 48.2415C147.632 49.1243 148.413 50.0298 149.186 50.9515C149.966 51.8736 150.744 52.8124 151.516 53.7619C151.431 53.8335 151.347 53.9051 151.263 53.9822C148.979 55.9926 146.69 58.0752 144.401 60.2193C142.029 62.435 139.662 64.7182 137.296 67.063C134.935 69.4082 132.575 71.8149 130.222 74.2781C127.875 76.7416 125.528 79.2668 123.2 81.8492C119.915 81.9811 116.683 82.1563 113.497 82.3854C110.334 82.6052 107.229 82.8798 104.171 83.1972C104.154 83.2014 104.131 83.1997 104.114 83.2039C101.05 83.5209 98.0333 83.8862 95.0748 84.2898C92.1214 84.6993 89.2267 85.147 86.3897 85.644C86.323 84.359 86.2609 83.0855 86.2151 81.8189C86.1633 80.5574 86.1278 79.3028 86.1085 78.0551C86.0833 76.8125 86.0739 75.5823 86.0803 74.3646C86.0867 73.1468 86.109 71.9415 86.1466 70.7541C86.3484 64.9302 86.8778 59.5736 87.7136 54.7386ZM56.4527 167.721L56.4471 167.721C52.7867 166.007 49.4119 164.226 46.309 162.411C46.0516 162.262 45.8003 162.108 45.5489 161.954C45.0239 161.644 44.5105 161.33 44.0026 161.016C43.9649 160.996 43.9333 160.971 43.8956 160.952C42.9231 160.344 41.979 159.733 41.0632 159.118C40.5948 158.802 40.1324 158.481 39.6755 158.16C39.4469 158.002 39.2243 157.839 39.0017 157.676C38.773 157.518 38.5504 157.355 38.3334 157.193C38.1103 157.036 37.8988 156.874 37.6818 156.711C37.6496 156.692 37.618 156.667 37.5863 156.642C37.4065 156.505 37.2267 156.368 37.0473 156.225C36.8354 156.069 36.6239 155.907 36.4185 155.74C36.2126 155.578 36.0067 155.417 35.8063 155.255C35.1997 154.772 34.6159 154.284 34.0492 153.792C33.75 153.534 33.4564 153.276 33.1688 153.013C32.8808 152.756 32.5927 152.498 32.3163 152.236C32.0916 152.028 31.8729 151.816 31.6542 151.603C31.4351 151.395 31.222 151.183 31.0089 150.971C30.3803 150.34 29.7851 149.712 29.2187 149.074C29.0274 148.869 28.8478 148.66 28.6685 148.444C28.396 148.132 28.1295 147.815 27.8801 147.493C27.6192 147.177 27.375 146.861 27.1419 146.547C27.1171 146.506 27.0863 146.47 27.0555 146.434C26.8122 146.107 26.58 145.781 26.3538 145.451C26.3192 145.392 26.2786 145.338 26.2384 145.279C26.0921 145.072 25.9519 144.86 25.8228 144.649C25.5787 144.261 25.3398 143.878 25.1124 143.492L25.0534 143.386C24.9355 143.176 24.8175 142.965 24.7052 142.755C24.4804 142.335 24.2724 141.916 24.0811 141.499C24.0333 141.395 23.9854 141.29 23.9376 141.186C23.8842 141.081 23.8419 140.977 23.7997 140.873C23.6528 140.532 23.5171 140.192 23.3925 139.852C23.3272 139.685 23.268 139.512 23.2138 139.346C23.163 139.208 23.1183 139.065 23.0731 138.927C23.0377 138.807 23.0028 138.681 22.9674 138.561C22.9005 138.343 22.8452 138.121 22.7894 137.904C22.78 137.881 22.7766 137.853 22.7677 137.824C22.7175 137.608 22.6673 137.392 22.6226 137.176C22.569 136.931 22.5266 136.688 22.4897 136.444C22.4473 136.201 22.416 135.958 22.3903 135.716C22.3666 135.518 22.3481 135.327 22.3356 135.13C22.3369 135.114 22.3326 135.096 22.3339 135.08C22.3238 134.995 22.3197 134.905 22.3151 134.821C22.293 134.462 22.2876 134.104 22.299 133.747C22.2974 133.697 22.2957 133.646 22.2997 133.596C22.3014 133.574 22.3032 133.552 22.3054 133.524C22.3118 133.301 22.3242 133.073 22.3417 132.851C22.3645 132.562 22.3984 132.274 22.438 131.986C22.4719 131.699 22.5221 131.417 22.5779 131.137C22.6592 130.747 22.7516 130.357 22.8663 129.969C22.9211 129.772 22.9814 129.576 23.0474 129.38C23.1129 129.19 23.1784 128.999 23.2554 128.804C23.2563 128.793 23.2632 128.777 23.2701 128.761C23.3347 128.581 23.4105 128.403 23.4866 128.219C23.5633 128.029 23.6459 127.835 23.7397 127.641C23.8137 127.485 23.8882 127.323 23.9682 127.162C24.1751 126.742 24.4043 126.324 24.6507 125.902C24.7663 125.716 24.8824 125.524 25.004 125.332C25.1192 125.151 25.2349 124.965 25.3612 124.785C25.4945 124.588 25.6337 124.387 25.7781 124.192C25.9044 124.012 26.0363 123.832 26.1738 123.653C26.1863 123.637 26.1987 123.621 26.2112 123.606C26.3491 123.421 26.4982 123.237 26.6473 123.053C26.7908 122.869 26.9454 122.686 27.1056 122.503C27.2667 122.309 27.4329 122.12 27.6052 121.927C30.2913 118.937 33.9559 116.052 38.4874 113.336C43.03 110.621 48.4562 108.077 54.6648 105.778C60.8905 103.475 67.9152 101.42 75.6377 99.6882C75.9332 102.55 76.2873 105.451 76.7006 108.384C77.1134 111.322 77.5793 114.299 78.1051 117.296C78.1624 117.636 78.2257 117.971 78.2885 118.311C78.7614 120.986 79.2831 123.682 79.8476 126.403C80.4912 129.472 81.1832 132.566 81.9352 135.683C80.0564 138.602 78.2286 141.515 76.463 144.421C74.6918 147.327 72.9827 150.227 71.3363 153.114C69.6899 156.002 68.1005 158.878 66.5793 161.742C65.0525 164.605 63.5943 167.452 62.1992 170.282C60.2129 169.449 58.3013 168.594 56.4582 167.722L56.4527 167.721ZM117.507 232.241C116.374 233.091 115.254 233.93 114.13 234.741C113.012 235.558 111.895 236.353 110.78 237.125C109.671 237.893 108.564 238.638 107.464 239.356C103.403 242.008 99.5046 244.305 95.7919 246.236C92.0909 248.162 88.5803 249.735 85.2843 250.933C82.2534 252.041 79.404 252.839 76.7651 253.312C76.543 253.356 76.3213 253.394 76.1056 253.428C73.2885 253.887 70.7189 253.98 68.426 253.693C67.6653 253.6 66.9359 253.464 66.238 253.286C65.54 253.108 64.8785 252.894 64.2432 252.631L64.2377 252.631C63.6024 252.368 62.9981 252.069 62.4307 251.728C61.8637 251.381 61.3277 250.998 60.8235 250.567C58.8174 248.85 57.3315 246.436 56.3608 243.392C55.3947 240.359 54.9433 236.702 55.0004 232.499C55.0622 228.307 55.6269 223.568 56.7052 218.361C57.7774 213.159 59.3519 207.488 61.4287 201.421C61.8519 200.18 62.3033 198.936 62.7727 197.676C63.2362 196.422 63.7284 195.159 64.2326 193.885C64.7368 192.612 65.2586 191.329 65.7975 190.041C66.0257 189.495 66.2594 188.949 66.4875 188.402C66.5969 188.154 66.7006 187.905 66.8043 187.656C67.017 187.164 67.23 186.667 67.4431 186.17C70.0765 187.115 72.7909 188.028 75.5753 188.907C78.3652 189.787 81.2307 190.633 84.1725 191.436C87.119 192.249 90.1363 193.018 93.224 193.748C96.3173 194.479 99.4805 195.176 102.709 195.827C103.847 198.32 105.009 200.776 106.197 203.2C106.443 203.716 106.699 204.229 106.95 204.74C108.401 207.671 109.889 210.549 111.405 213.368C112.926 216.193 114.479 218.964 116.059 221.677C117.644 224.389 119.257 227.042 120.903 229.631C119.768 230.514 118.634 231.386 117.507 232.241ZM138.505 214.602C137.743 215.308 136.988 216.002 136.232 216.692C134.542 218.223 132.853 219.722 131.174 221.182C130.046 219.416 128.926 217.624 127.826 215.793C126.725 213.968 125.638 212.117 124.565 210.227C123.491 208.343 122.437 206.432 121.396 204.489C120.355 202.551 119.333 200.582 118.325 198.58C119.655 198.78 120.99 198.975 122.338 199.165C123.68 199.349 125.039 199.535 126.399 199.703C127.765 199.878 129.142 200.048 130.525 200.208C131.909 200.362 133.304 200.517 134.706 200.655C136.114 200.794 137.516 200.927 138.914 201.049C140.311 201.17 141.71 201.281 143.104 201.38C144.497 201.484 145.891 201.577 147.281 201.665C148.67 201.752 150.054 201.828 151.439 201.898C149.753 203.648 148.065 205.365 146.373 207.047C145.26 208.15 144.148 209.241 143.037 210.316C142.455 210.873 141.879 211.426 141.303 211.978C140.369 212.866 139.437 213.737 138.505 214.602ZM208.297 235.122C207.543 240.695 206.411 245.663 204.929 249.944C203.447 254.237 201.615 257.836 199.458 260.661C197.306 263.492 194.833 265.549 192.069 266.756C191.378 267.059 190.669 267.311 189.941 267.51C189.213 267.71 188.461 267.857 187.697 267.953C186.933 268.05 186.149 268.099 185.348 268.092C184.546 268.09 183.727 268.037 182.894 267.932C181.878 267.807 180.839 267.608 179.779 267.334C178.224 266.937 176.624 266.386 174.987 265.682C174.2 265.346 173.4 264.969 172.597 264.56C172.468 264.494 172.338 264.427 172.204 264.355C171.972 264.236 171.735 264.112 171.499 263.981C171.273 263.863 171.047 263.739 170.822 263.609C170.736 263.563 170.655 263.518 170.57 263.466C170.312 263.323 170.055 263.174 169.792 263.014C169.117 262.62 168.433 262.191 167.745 261.746C167.553 261.624 167.361 261.497 167.17 261.365C166.924 261.206 166.674 261.035 166.424 260.865C166.393 260.84 166.355 260.82 166.323 260.795C165.988 260.568 165.653 260.334 165.319 260.09C164.565 259.556 163.809 258.987 163.042 258.396C163.037 258.39 163.032 258.389 163.026 258.383C163.026 258.383 163.021 258.383 163.021 258.377C162.672 258.11 162.319 257.83 161.971 257.551C161.971 257.546 161.966 257.545 161.966 257.545C161.586 257.241 161.212 256.933 160.833 256.618C160.46 256.309 160.081 255.988 159.703 255.662L159.698 255.662C159.336 255.348 158.969 255.029 158.602 254.703C158.209 254.348 157.806 253.992 157.408 253.626C156.901 253.161 156.395 252.685 155.884 252.198C155.373 251.71 154.857 251.211 154.343 250.701C153.828 250.191 153.313 249.676 152.8 249.143C152.603 248.943 152.411 248.749 152.22 248.544C152.028 248.345 151.836 248.145 151.64 247.934C151.251 247.529 150.864 247.113 150.471 246.691C150.084 246.269 149.686 245.841 149.294 245.402C148.908 244.974 148.521 244.542 148.136 244.103C147.292 243.142 146.456 242.16 145.621 241.15C144.792 240.145 143.966 239.113 143.14 238.065C142.315 237.016 141.496 235.951 140.684 234.87C139.867 233.788 139.062 232.691 138.253 231.582C138.812 231.101 139.372 230.614 139.932 230.122C140.823 229.348 141.71 228.558 142.591 227.761C143.64 226.827 144.685 225.881 145.725 224.918C148.222 222.623 150.714 220.249 153.205 217.808C153.685 217.337 154.171 216.861 154.652 216.38C155.133 215.898 155.614 215.416 156.095 214.934C157.623 213.412 159.141 211.855 160.662 210.276C161.615 209.284 162.569 208.281 163.512 207.266C164.026 206.725 164.534 206.184 165.037 205.643C166.053 204.555 167.066 203.45 168.073 202.339C171.598 202.355 175.089 202.312 178.544 202.216C182 202.12 185.421 201.971 188.796 201.762C192.181 201.56 195.515 201.298 198.803 200.987C202.096 200.672 205.338 200.307 208.527 199.888C208.655 201.329 208.777 202.764 208.883 204.186C208.989 205.614 209.079 207.035 209.158 208.444C209.227 209.701 209.28 210.946 209.323 212.178C209.334 212.33 209.339 212.481 209.343 212.633C209.385 214.022 209.412 215.393 209.411 216.746C209.429 223.414 209.05 229.565 208.297 235.122ZM280.398 150.885C279.911 154.362 278.109 157.801 275.112 161.108C272.115 164.414 267.934 167.583 262.701 170.523C257.474 173.457 251.216 176.166 244.047 178.556C239.942 179.925 235.541 181.193 230.871 182.333C227.434 183.185 223.846 183.964 220.124 184.664C219.646 181.481 219.098 178.269 218.495 175.036C217.887 171.808 217.224 168.559 216.495 165.294C215.765 162.034 214.976 158.753 214.131 155.467C213.285 152.187 212.379 148.897 211.417 145.596C212.108 144.511 212.788 143.424 213.462 142.343C214.701 140.362 215.905 138.389 217.081 136.415C217.153 136.292 217.229 136.169 217.301 136.046C219.046 133.122 220.728 130.203 222.347 127.302C223.144 125.873 223.93 124.443 224.692 123.022C225.461 121.596 226.212 120.175 226.946 118.763C227.031 118.608 227.111 118.452 227.19 118.296C228.189 116.369 229.154 114.45 230.089 112.54C230.344 112.018 230.598 111.496 230.852 110.979C231.106 110.457 231.354 109.94 231.602 109.423C233.587 110.139 235.519 110.873 237.4 111.619C237.993 111.856 238.585 112.093 239.166 112.334C239.563 112.494 239.953 112.659 240.338 112.823C240.729 112.983 241.12 113.148 241.5 113.312C242.416 113.708 243.326 114.104 244.22 114.505C244.647 114.7 245.075 114.891 245.497 115.092C245.724 115.193 245.952 115.295 246.179 115.402C246.314 115.463 246.443 115.529 246.579 115.59C248.011 116.268 249.403 116.953 250.756 117.641C251.063 117.8 251.37 117.958 251.677 118.122C252.07 118.326 252.463 118.531 252.851 118.74C253.372 119.021 253.888 119.303 254.393 119.583C254.812 119.811 255.22 120.045 255.628 120.278C255.934 120.453 256.234 120.622 256.529 120.796C257.167 121.165 257.798 121.545 258.413 121.923C258.59 122.026 258.761 122.129 258.927 122.237C259.242 122.43 259.558 122.628 259.867 122.826C260.315 123.113 260.758 123.399 261.195 123.685C261.515 123.895 261.829 124.104 262.138 124.318C262.724 124.705 263.292 125.102 263.844 125.498C264.168 125.725 264.481 125.951 264.794 126.182C264.868 126.238 264.942 126.294 265.017 126.345C265.387 126.62 265.747 126.894 266.106 127.169C266.556 127.511 266.988 127.859 267.415 128.205C267.674 128.404 267.927 128.614 268.174 128.824C268.321 128.942 268.469 129.065 268.61 129.188C269.561 129.995 270.456 130.804 271.3 131.619C271.457 131.765 271.613 131.918 271.764 132.069C272.887 133.18 273.909 134.295 274.824 135.418C274.993 135.621 275.151 135.818 275.309 136.021C275.34 136.057 275.365 136.092 275.396 136.128C276.434 137.462 277.327 138.795 278.057 140.133C278.606 141.132 279.065 142.135 279.435 143.125C280.416 145.762 280.749 148.364 280.398 150.885Z" fill="#58C4DC"/>
<path d="M170.4 142.453C169.801 146.066 168.513 149.458 166.698 152.488C164.878 155.525 162.53 158.201 159.824 160.384C157.111 162.568 154.046 164.259 150.777 165.326C147.514 166.392 144.058 166.841 140.573 166.537C140.3 166.516 140.027 166.483 139.761 166.451C139.505 166.42 139.25 166.388 138.995 166.346L138.929 166.341C138.702 166.3 138.48 166.266 138.254 166.22C138.176 166.209 138.099 166.197 138.022 166.18C137.807 166.135 137.597 166.096 137.388 166.046C137.178 166.001 136.974 165.952 136.771 165.897C136.645 165.87 136.518 165.837 136.392 165.8C136.2 165.745 136.008 165.691 135.822 165.637C135.592 165.569 135.362 165.495 135.133 165.415C134.903 165.341 134.68 165.262 134.457 165.177C134.407 165.162 134.358 165.142 134.309 165.127C134.113 165.05 133.918 164.973 133.727 164.896C133.483 164.793 133.239 164.69 132.996 164.576C132.795 164.487 132.601 164.394 132.406 164.3C131.98 164.093 131.56 163.87 131.153 163.637C130.981 163.539 130.81 163.436 130.638 163.334C130.473 163.231 130.301 163.128 130.136 163.02C129.97 162.918 129.805 162.804 129.64 162.696C129.465 162.576 129.289 162.45 129.12 162.325C127.227 160.952 125.569 159.29 124.205 157.399C122.369 154.868 121.053 151.942 120.346 148.757C119.672 145.714 119.566 142.442 120.107 139.07C120.135 138.922 120.159 138.767 120.188 138.613C120.814 135.08 122.102 131.767 123.888 128.807C125.675 125.846 127.967 123.233 130.604 121.083C132.563 119.488 134.715 118.155 136.994 117.128C137.79 116.766 138.606 116.445 139.43 116.163C142.623 115.068 146.025 114.577 149.467 114.804C152.925 115.032 156.103 115.97 158.894 117.47C160.518 118.347 162.01 119.41 163.348 120.633C163.453 120.731 163.552 120.822 163.656 120.92C163.682 120.95 163.714 120.975 163.739 121.005C163.855 121.109 163.964 121.218 164.072 121.333C164.348 121.606 164.617 121.89 164.88 122.185C165.03 122.347 165.173 122.515 165.311 122.682C165.547 122.964 165.777 123.25 166.001 123.542C166.595 124.321 167.141 125.146 167.634 126.006C167.733 126.171 167.826 126.34 167.919 126.515C168.047 126.743 168.168 126.982 168.284 127.22C168.341 127.342 168.404 127.47 168.462 127.592C168.577 127.83 168.687 128.073 168.791 128.322C168.862 128.484 168.934 128.646 168.999 128.808C169.094 129.033 169.182 129.264 169.265 129.494C169.348 129.718 169.43 129.954 169.507 130.184C169.584 130.419 169.661 130.654 169.732 130.889C169.875 131.353 170 131.826 170.114 132.305C170.235 132.828 170.345 133.357 170.431 133.894C170.454 134.03 170.476 134.172 170.493 134.313C170.536 134.557 170.567 134.805 170.592 135.053C170.63 135.352 170.662 135.662 170.688 135.966C170.854 138.058 170.772 140.236 170.4 142.453Z" fill="#58C4DC"/>
<path d="M129.12 162.325C129.29 162.45 129.465 162.576 129.64 162.696C129.539 162.627 129.438 162.557 129.332 162.482C129.263 162.431 129.194 162.381 129.12 162.325Z" fill="#58C4DC"/>
<path d="M170.08 132.162C170.093 132.208 170.101 132.253 170.114 132.305C170 131.826 169.875 131.353 169.732 130.889C169.862 131.307 169.979 131.735 170.08 132.162Z" fill="#58C4DC"/>
</g>
<defs>
<clipPath id="clip0_6443_18738">
<rect width="294.709" height="273.794" fill="white" transform="translate(21.5469 0.58374) rotate(4.51342)"/>
</clipPath>
</defs>
</svg>