<svg width="829" height="744" viewBox="0 0 829 744" fill="none" xmlns="http://www.w3.org/2000/svg">
<g opacity="0.3" filter="url(#filter0_f_1_2708)">
<circle cx="508.5" cy="320.573" r="120.5" fill="#58C4DC"/>
</g>
<g opacity="0.3" filter="url(#filter1_f_1_2708)">
<circle cx="388.15" cy="381.146" r="162" fill="#58C4DC"/>
</g>
<g opacity="0.3" filter="url(#filter2_f_1_2708)">
<circle cx="301.5" cy="310.573" r="101.5" fill="#58C4DC"/>
</g>
<path d="M406 281.073C401.315 281.073 396.675 281.992 392.346 283.778C388.018 285.563 384.085 288.181 380.771 291.48C377.458 294.78 374.83 298.697 373.037 303.009C371.244 307.32 370.321 311.941 370.321 316.607C370.321 321.273 371.244 325.894 373.037 330.205C374.83 334.516 377.458 338.434 380.771 341.733C384.085 345.033 388.018 347.65 392.346 349.436C396.675 351.222 401.315 352.141 406 352.141C415.463 352.141 424.538 348.397 431.229 341.733C437.92 335.069 441.679 326.031 441.679 316.607C441.679 307.183 437.92 298.144 431.229 291.48C424.538 284.817 415.463 281.073 406 281.073ZM486.357 298.822C479.253 298.822 472.44 301.633 467.417 306.636C462.393 311.639 459.571 318.424 459.571 325.499C459.571 332.575 462.393 339.36 467.417 344.363C472.44 349.366 479.253 352.177 486.357 352.177C493.461 352.177 500.274 349.366 505.298 344.363C510.321 339.36 513.143 332.575 513.143 325.499C513.143 318.424 510.321 311.639 505.298 306.636C500.274 301.633 493.461 298.822 486.357 298.822ZM325.643 298.822C318.539 298.822 311.726 301.633 306.702 306.636C301.679 311.639 298.857 318.424 298.857 325.499C298.857 332.575 301.679 339.36 306.702 344.363C311.726 349.366 318.539 352.177 325.643 352.177C332.747 352.177 339.56 349.366 344.583 344.363C349.607 339.36 352.429 332.575 352.429 325.499C352.429 318.424 349.607 311.639 344.583 306.636C339.56 301.633 332.747 298.822 325.643 298.822ZM352.429 387.622C352.462 382.927 354.358 378.435 357.703 375.127C361.048 371.818 365.571 369.961 370.286 369.962H441.714C446.45 369.962 450.992 371.835 454.341 375.171C457.69 378.506 459.571 383.03 459.571 387.746V441.101C459.57 446.698 458.691 452.261 456.964 457.588C453.01 469.658 444.865 479.93 433.991 486.557C423.118 493.185 410.228 495.735 397.636 493.749C385.045 491.763 373.576 485.372 365.291 475.722C357.005 466.073 352.445 453.798 352.429 441.101V387.622ZM334.571 387.746C334.571 381.255 336.304 375.19 339.357 369.962H298.857C294.121 369.962 289.579 371.835 286.23 375.171C282.881 378.506 281 383.03 281 387.746V432.209C280.998 439.488 282.79 446.657 286.219 453.085C289.649 459.514 294.61 465.005 300.669 469.077C306.727 473.15 313.697 475.678 320.965 476.441C328.234 477.204 335.58 476.177 342.357 473.452C337.217 463.431 334.549 452.335 334.571 441.083V387.746ZM477.429 387.746V441.101C477.429 452.75 474.625 463.741 469.643 473.452C476.42 476.177 483.766 477.204 491.035 476.441C498.303 475.678 505.273 473.15 511.331 469.077C517.39 465.005 522.351 459.514 525.781 453.085C529.21 446.657 531.002 439.488 531 432.209V387.746C531 383.03 529.119 378.506 525.77 375.171C522.421 371.835 517.879 369.962 513.143 369.962H472.643C475.679 375.19 477.429 381.255 477.429 387.746Z" fill="#58C4DC"/>
<g clip-path="url(#clip0_1_2708)">
<path d="M463.5 245.502V291.077C463.5 296.005 459.483 300.007 454.528 300.007H439.982C438.767 300.007 437.61 300.479 436.752 301.347C436.752 301.347 436.751 301.348 436.751 301.348L428.537 309.526C427.139 310.917 424.875 310.917 423.477 309.526L415.26 301.345C414.406 300.495 413.237 300.007 412.032 300.007H397.472C392.517 300.007 388.5 296.005 388.5 291.077V245.502C388.5 240.575 392.517 236.573 397.472 236.573H454.528C459.483 236.573 463.5 240.575 463.5 245.502Z" fill="url(#paint0_linear_1_2708)" fill-opacity="0.1" stroke="#58C4DC"/>
<path d="M432.97 266.338L427.38 260.748C426.986 260.354 426.485 260.157 425.875 260.157C425.266 260.157 424.765 260.354 424.37 260.748L418.727 266.392C418.333 266.786 418.144 267.279 418.161 267.871C418.178 268.463 418.385 268.956 418.78 269.348C419.175 269.742 419.676 269.94 420.285 269.94C420.895 269.94 421.396 269.742 421.79 269.348L423.725 267.413L423.725 274.347C423.725 274.956 423.932 275.458 424.345 275.852C424.757 276.246 425.268 276.443 425.875 276.443C426.485 276.443 426.996 276.237 427.408 275.824C427.821 275.411 428.027 274.901 428.025 274.293L428.025 267.413L430.014 269.402C430.408 269.796 430.901 269.985 431.493 269.967C432.085 269.95 432.578 269.744 432.97 269.348C433.365 268.954 433.562 268.452 433.562 267.843C433.562 267.234 433.365 266.732 432.97 266.338ZM447.375 267.843C447.375 270.817 446.811 273.612 445.681 276.228C444.552 278.844 443.02 281.12 441.087 283.055C439.152 284.99 436.876 286.521 434.26 287.649C431.645 288.777 428.85 289.342 425.875 289.343C422.901 289.343 420.106 288.779 417.49 287.649C414.875 286.52 412.599 284.988 410.664 283.055C408.729 281.12 407.198 278.844 406.07 276.228C404.942 273.612 404.377 270.817 404.375 267.843C404.375 264.869 404.94 262.074 406.07 259.458C407.199 256.842 408.731 254.567 410.664 252.632C412.599 250.697 414.875 249.165 417.49 248.035C420.106 246.906 422.901 246.342 425.875 246.343C428.85 246.343 431.645 246.908 434.26 248.037C436.876 249.167 439.152 250.698 441.087 252.632C443.022 254.567 444.554 256.842 445.683 259.458C446.813 262.074 447.377 264.869 447.375 267.843Z" fill="#F6F7F9"/>
</g>
<defs>
<filter id="filter0_f_1_2708" x="188" y="0.0727539" width="641" height="641" filterUnits="userSpaceOnUse" color-interpolation-filters="sRGB">
<feFlood flood-opacity="0" result="BackgroundImageFix"/>
<feBlend mode="normal" in="SourceGraphic" in2="BackgroundImageFix" result="shape"/>
<feGaussianBlur stdDeviation="100" result="effect1_foregroundBlur_1_2708"/>
</filter>
<filter id="filter1_f_1_2708" x="26.1504" y="19.1455" width="724" height="724" filterUnits="userSpaceOnUse" color-interpolation-filters="sRGB">
<feFlood flood-opacity="0" result="BackgroundImageFix"/>
<feBlend mode="normal" in="SourceGraphic" in2="BackgroundImageFix" result="shape"/>
<feGaussianBlur stdDeviation="100" result="effect1_foregroundBlur_1_2708"/>
</filter>
<filter id="filter2_f_1_2708" x="0" y="9.07275" width="603" height="603" filterUnits="userSpaceOnUse" color-interpolation-filters="sRGB">
<feFlood flood-opacity="0" result="BackgroundImageFix"/>
<feBlend mode="normal" in="SourceGraphic" in2="BackgroundImageFix" result="shape"/>
<feGaussianBlur stdDeviation="100" result="effect1_foregroundBlur_1_2708"/>
</filter>
<linearGradient id="paint0_linear_1_2708" x1="426" y1="236.073" x2="426" y2="311.069" gradientUnits="userSpaceOnUse">
<stop stop-color="white"/>
<stop offset="1" stop-color="white" stop-opacity="0"/>
</linearGradient>
<clipPath id="clip0_1_2708">
<rect width="76" height="75" fill="white" transform="translate(388 236.073)"/>
</clipPath>
</defs>
</svg>