<svg width="829" height="744" viewBox="0 0 829 744" fill="none" xmlns="http://www.w3.org/2000/svg">
<g opacity="0.3" filter="url(#filter0_f_1_2689)">
<circle cx="508.5" cy="320.5" r="120.5" fill="#58C4DC"/>
</g>
<g opacity="0.3" filter="url(#filter1_f_1_2689)">
<circle cx="388.15" cy="381.073" r="162" fill="#58C4DC"/>
</g>
<g opacity="0.3" filter="url(#filter2_f_1_2689)">
<circle cx="301.5" cy="310.5" r="101.5" fill="#58C4DC"/>
</g>
<path d="M280 486.5C273.125 486.5 267.238 484.05 262.338 479.15C257.438 474.25 254.992 468.367 255 461.5V324C255 317.125 257.45 311.238 262.35 306.338C267.25 301.438 273.133 298.992 280 299H330V274C330 267.125 332.45 261.238 337.35 256.338C342.25 251.438 348.133 248.992 355 249H405C411.875 249 417.763 251.45 422.663 256.35C427.562 261.25 430.008 267.133 430 274V299H480C486.875 299 492.762 301.45 497.662 306.35C502.562 311.25 505.008 317.133 505 324V461.5C505 468.375 502.55 474.262 497.65 479.163C492.75 484.062 486.867 486.508 480 486.5H280ZM355 299H405V274H355V299Z" fill="#58C4DC"/>
<g clip-path="url(#clip0_1_2689)">
<path d="M527.992 290.027V335.602C527.992 340.529 523.975 344.531 519.02 344.531H504.474C503.259 344.531 502.101 345.003 501.244 345.871C501.244 345.872 501.243 345.872 501.243 345.873L493.028 354.05C491.631 355.442 489.367 355.442 487.969 354.05L479.752 345.87C478.898 345.02 477.729 344.531 476.524 344.531H461.964C457.008 344.531 452.992 340.529 452.992 335.602V290.027C452.992 285.099 457.008 281.097 461.964 281.097H519.02C523.975 281.097 527.992 285.099 527.992 290.027Z" fill="url(#paint0_linear_1_2689)" fill-opacity="0.1"/>
<path d="M527.992 290.027V335.602C527.992 340.529 523.975 344.531 519.02 344.531H504.474C503.259 344.531 502.101 345.003 501.244 345.871C501.244 345.872 501.243 345.872 501.243 345.873L493.028 354.05C491.631 355.442 489.367 355.442 487.969 354.05L479.752 345.87C478.898 345.02 477.729 344.531 476.524 344.531H461.964C457.008 344.531 452.992 340.529 452.992 335.602V290.027C452.992 285.099 457.008 281.097 461.964 281.097H519.02C523.975 281.097 527.992 285.099 527.992 290.027Z" stroke="url(#paint1_linear_1_2689)" style="mix-blend-mode:overlay"/>
<path d="M516.003 297.478H498.497L504.756 303.708L489.688 318.708L479.582 308.661L462.485 325.681L467.46 330.649L479.582 318.581L489.688 328.628L509.745 308.675L516.003 314.905V297.478Z" fill="#F6F7F9"/>
</g>
<path d="M307.721 345.843V391.419C307.721 396.346 303.704 400.348 298.749 400.348H284.203C282.988 400.348 281.83 400.82 280.973 401.688C280.973 401.689 280.972 401.689 280.972 401.69L272.757 409.867C271.36 411.258 269.096 411.258 267.698 409.867L259.481 401.686C258.627 400.837 257.458 400.348 256.253 400.348H241.693C236.737 400.348 232.721 396.346 232.721 391.419V345.843C232.721 340.916 236.737 336.914 241.693 336.914H298.749C303.704 336.914 307.721 340.916 307.721 345.843Z" fill="url(#paint2_linear_1_2689)" fill-opacity="0.1"/>
<path d="M307.721 345.843V391.419C307.721 396.346 303.704 400.348 298.749 400.348H284.203C282.988 400.348 281.83 400.82 280.973 401.688C280.973 401.689 280.972 401.689 280.972 401.69L272.757 409.867C271.36 411.258 269.096 411.258 267.698 409.867L259.481 401.686C258.627 400.837 257.458 400.348 256.253 400.348H241.693C236.737 400.348 232.721 396.346 232.721 391.419V345.843C232.721 340.916 236.737 336.914 241.693 336.914H298.749C303.704 336.914 307.721 340.916 307.721 345.843Z" stroke="url(#paint3_linear_1_2689)" style="mix-blend-mode:overlay"/>
<path d="M253.46 366.217C252.948 366.217 252.518 366.037 252.171 365.677C251.824 365.317 251.681 364.897 251.743 364.417C251.954 362.437 252.474 360.539 253.303 358.723C254.132 356.908 255.224 355.281 256.578 353.842C256.91 353.512 257.332 353.347 257.844 353.347C258.356 353.347 258.793 353.527 259.154 353.887C259.486 354.217 259.651 354.622 259.651 355.102C259.651 355.582 259.486 356.017 259.154 356.407C258.1 357.547 257.248 358.785 256.6 360.12C255.952 361.456 255.538 362.888 255.358 364.417C255.298 364.927 255.094 365.355 254.747 365.7C254.4 366.046 253.971 366.218 253.46 366.217ZM285.998 366.217C285.516 366.217 285.094 366.044 284.733 365.698C284.371 365.353 284.16 364.926 284.1 364.417C283.919 362.887 283.506 361.454 282.858 360.118C282.211 358.783 281.36 357.546 280.304 356.407C279.973 356.017 279.807 355.582 279.807 355.102C279.807 354.622 279.988 354.217 280.349 353.887C280.711 353.527 281.14 353.347 281.638 353.347C282.136 353.347 282.55 353.512 282.88 353.842C284.236 355.282 285.328 356.909 286.157 358.723C286.986 360.538 287.506 362.436 287.716 364.417C287.776 364.897 287.633 365.317 287.287 365.677C286.941 366.037 286.512 366.217 285.998 366.217ZM257.076 382.417C256.563 382.417 256.134 382.244 255.787 381.898C255.44 381.553 255.267 381.126 255.268 380.617C255.268 380.107 255.441 379.679 255.788 379.333C256.136 378.988 256.565 378.816 257.076 378.817H258.883V366.217C258.883 363.727 259.636 361.514 261.143 359.578C262.649 357.643 264.607 356.376 267.018 355.777V354.517C267.018 353.767 267.282 353.129 267.809 352.603C268.337 352.078 268.977 351.816 269.729 351.817C270.482 351.817 271.123 352.08 271.651 352.605C272.179 353.131 272.442 353.768 272.441 354.517V355.777C274.851 356.377 276.809 357.645 278.316 359.58C279.822 361.516 280.575 363.728 280.575 366.217V378.817H282.383C282.895 378.817 283.325 378.99 283.672 379.335C284.019 379.681 284.192 380.108 284.191 380.617C284.191 381.127 284.017 381.555 283.67 381.9C283.323 382.246 282.894 382.418 282.383 382.417H257.076ZM269.729 387.817C268.735 387.817 267.884 387.464 267.175 386.758C266.466 386.053 266.113 385.206 266.114 384.217H273.345C273.345 385.207 272.99 386.055 272.282 386.76C271.573 387.466 270.722 387.818 269.729 387.817Z" fill="#F6F7F9"/>
<defs>
<filter id="filter0_f_1_2689" x="188" y="0" width="641" height="641" filterUnits="userSpaceOnUse" color-interpolation-filters="sRGB">
<feFlood flood-opacity="0" result="BackgroundImageFix"/>
<feBlend mode="normal" in="SourceGraphic" in2="BackgroundImageFix" result="shape"/>
<feGaussianBlur stdDeviation="100" result="effect1_foregroundBlur_1_2689"/>
</filter>
<filter id="filter1_f_1_2689" x="26.1504" y="19.0728" width="724" height="724" filterUnits="userSpaceOnUse" color-interpolation-filters="sRGB">
<feFlood flood-opacity="0" result="BackgroundImageFix"/>
<feBlend mode="normal" in="SourceGraphic" in2="BackgroundImageFix" result="shape"/>
<feGaussianBlur stdDeviation="100" result="effect1_foregroundBlur_1_2689"/>
</filter>
<filter id="filter2_f_1_2689" x="0" y="9" width="603" height="603" filterUnits="userSpaceOnUse" color-interpolation-filters="sRGB">
<feFlood flood-opacity="0" result="BackgroundImageFix"/>
<feBlend mode="normal" in="SourceGraphic" in2="BackgroundImageFix" result="shape"/>
<feGaussianBlur stdDeviation="100" result="effect1_foregroundBlur_1_2689"/>
</filter>
<linearGradient id="paint0_linear_1_2689" x1="490.492" y1="280.597" x2="490.492" y2="355.594" gradientUnits="userSpaceOnUse">
<stop stop-color="white"/>
<stop offset="1" stop-color="white" stop-opacity="0"/>
</linearGradient>
<linearGradient id="paint1_linear_1_2689" x1="523.366" y1="283.245" x2="458.935" y2="351.044" gradientUnits="userSpaceOnUse">
<stop offset="0.0833333" stop-color="#42B883"/>
<stop offset="0.270833" stop-color="#02C2FF"/>
<stop offset="0.53125" stop-color="white"/>
<stop offset="0.703125" stop-color="#02C2FF"/>
<stop offset="0.880208" stop-color="#42B883"/>
<stop offset="1" stop-color="#02C2FF"/>
</linearGradient>
<linearGradient id="paint2_linear_1_2689" x1="270.221" y1="336.414" x2="270.221" y2="411.411" gradientUnits="userSpaceOnUse">
<stop stop-color="white"/>
<stop offset="1" stop-color="white" stop-opacity="0"/>
</linearGradient>
<linearGradient id="paint3_linear_1_2689" x1="303.095" y1="339.062" x2="238.664" y2="406.86" gradientUnits="userSpaceOnUse">
<stop offset="0.0833333" stop-color="#42B883"/>
<stop offset="0.270833" stop-color="#02C2FF"/>
<stop offset="0.53125" stop-color="white"/>
<stop offset="0.703125" stop-color="#02C2FF"/>
<stop offset="0.880208" stop-color="#42B883"/>
<stop offset="1" stop-color="#02C2FF"/>
</linearGradient>
<clipPath id="clip0_1_2689">
<rect width="76" height="75" fill="white" transform="translate(452.492 280.597)"/>
</clipPath>
</defs>
</svg>